<?xml version="1.0" standalone="no"?>
<!DOCTYPE svg PUBLIC "-//W3C//DTD SVG 20010904//EN"
 "http://www.w3.org/TR/2001/REC-SVG-20010904/DTD/svg10.dtd">
<svg version="1.0" xmlns="http://www.w3.org/2000/svg"
 width="700.000000pt" height="700.000000pt" viewBox="0 0 700.000000 700.000000"
 preserveAspectRatio="xMidYMid meet">
<metadata>
Created by potrace 1.14, written by Peter Selinger 2001-2017
</metadata>
<g transform="translate(0.000000,700.000000) scale(0.100000,-0.100000)"
fill="#000000" stroke="none">
<path d="M0 3500 l0 -3500 3500 0 3500 0 0 3500 0 3500 -3500 0 -3500 0 0
-3500z m1440 510 l0 -2570 2570 0 2570 0 0 -510 0 -510 -3080 0 -3080 0 0
3080 0 3080 510 0 510 0 0 -2570z m3041 2170 c173 -181 312 -333 309 -337 -3
-4 -448 -430 -990 -947 -542 -516 -1041 -993 -1109 -1060 -249 -244 -341 -413
-341 -625 0 -199 85 -380 266 -563 101 -103 181 -163 279 -209 109 -51 172
-63 296 -57 155 8 290 64 444 182 33 26 552 516 1153 1089 601 573 1097 1042
1102 1042 4 0 150 -148 323 -330 l316 -330 -27 -26 c-15 -15 -470 -448 -1012
-964 -542 -516 -1025 -977 -1075 -1025 -266 -253 -522 -398 -815 -461 -137
-29 -387 -32 -530 -6 -265 49 -549 190 -789 392 -113 95 -300 288 -383 395
-203 262 -322 519 -370 795 -28 167 -22 402 16 554 59 236 183 463 357 656 71
79 2248 2163 2260 2164 4 1 148 -147 320 -329z"/>
</g>
</svg>
