<svg width="612" height="354" fill="none" xmlns="http://www.w3.org/2000/svg"><path d="M.082 231.818v-41.162L89.584 49.738h36.475v55.957h-21.094l-52.442 82.91v1.758h129.639v41.455H.082zM105.551 268v-48.633l1.172-18.31V49.738h49.218V268h-50.39zm323.531-36.182v-41.162l89.502-140.918h36.475v55.957h-21.094l-52.442 82.91v1.758h129.639v41.455h-182.08zM534.551 268v-48.633l1.172-18.31V49.738h49.218V268h-50.39z" fill="#26323C"/><path d="M220.203 267.954l.057-147.149c.009-24.446 7.659-43.768 22.949-58.018 15.29-14.199 36.178-21.334 62.665-21.354 26.068-.02 46.794 6.874 62.125 20.682 15.331 13.755 23.123 32.752 23.428 56.883l-.057 148.824-46.011.036.057-147.358c.006-14.657-3.496-25.281-10.509-31.976-7.012-6.695-16.694-10.038-29.047-10.029-25.859.02-39.002 13.64-39.431 40.809l-.057 148.615-46.168.035h-.001z" fill="#EF7F1A"/></svg>