<svg width="1201" height="547" fill="none" xmlns="http://www.w3.org/2000/svg"><mask id="a" style="mask-type:alpha" maskUnits="userSpaceOnUse" x="0" y="0" width="1201" height="547"><rect width="1201" height="547" rx="4" fill="#394854"/></mask><g mask="url(#a)" fill="#26323C"><path opacity=".5" d="M329.082 598.18l443.095-433.331c73.612-71.99 153.729-105.277 240.503-100.018 86.63 5.414 168.05 48.93 244.13 130.711 74.88 80.485 113.61 164.833 116.05 252.881 2.6 87.893-32.22 167.934-103.98 239.969L820.74 1126.66 688.58 984.6l443.73-433.948c44.13-43.161 66.06-85.282 66.08-126.674.03-41.389-17.69-81.153-53.18-119.292-74.27-79.839-152.997-80.322-236.007-1.607L461.696 740.727l-132.61-142.544-.004-.003zm-40.095-298.864l-389.8-520.553-93.947 85.523 467.366 624.138 566.071-515.31L761.11-130.47 288.987 299.316z"/></g></svg>