<svg width="768" height="711" fill="none" xmlns="http://www.w3.org/2000/svg"><path d="M961 449.779L553.099 84.714C485.334 24.065 411.58-3.977 331.695.454c-79.742 4.56-154.703 41.221-224.74 110.118C38.026 178.378 2.369 249.437.125 323.614c-2.391 74.047 29.66 141.479 95.725 202.165L508.393 895l121.663-119.677-408.481-365.584c-40.631-36.362-60.815-71.847-60.838-106.719-.027-34.868 16.291-68.368 48.957-100.499 68.375-67.26 140.846-67.668 217.262-1.353L838.919 569.87l122.078-120.088.003-.003z" fill="#EF7F1A"/></svg>