<svg width="673" height="661" fill="none" xmlns="http://www.w3.org/2000/svg"><path d="M961 479.429L553.099 90.299C485.334 25.652 411.58-4.24 331.695.483c-79.742 4.862-154.703 43.94-224.74 117.379C38.026 190.137 2.369 265.881.125 344.948c-2.391 78.927 29.66 150.804 95.725 215.491L508.393 954l121.663-127.566L221.575 436.75c-40.631-38.759-60.815-76.583-60.838-113.754-.027-37.167 16.291-72.875 48.957-107.124 68.375-71.695 140.846-72.129 217.262-1.443l411.963 393.007 122.078-128.004.003-.003z" fill="#EF7F1A"/></svg>