<svg width="22" height="22" fill="none" xmlns="http://www.w3.org/2000/svg"><g clip-path="url(#clip0_669_1608)" fill="#EF7F1A"><path d="M12.833 8.332l8.076 1.605A1.353 1.353 0 0122 11.275v9.35c0 .76-.614 1.375-1.375 1.375h-8.25a.454.454 0 00.458-.458v-.459h7.792a.46.46 0 00.458-.458v-9.35a.46.46 0 00-.357-.45l-7.893-1.558v-.935z"/><path d="M17.875 12.833c.257 0 .458.202.458.459a.454.454 0 01-.458.458h-1.833a.454.454 0 01-.459-.458c0-.257.202-.459.459-.459h1.833zm0 2.75c.257 0 .458.202.458.459a.454.454 0 01-.458.458h-1.833a.454.454 0 01-.459-.458c0-.257.202-.459.459-.459h1.833zm0 2.75c.257 0 .458.202.458.459a.454.454 0 01-.458.458h-1.833a.454.454 0 01-.459-.458c0-.257.202-.459.459-.459h1.833zm-5.042 3.209a.454.454 0 01-.458.458.454.454 0 01-.458-.458V8.708c0-.137.064-.265.165-.357a.482.482 0 01.385-.092l.366.073v13.21z"/><path d="M11.917 21.083v.459c0 .256.201.458.458.458H8.708a.454.454 0 00.459-.458v-.459h2.75zm-2.292-16.5c.257 0 .458.202.458.459a.454.454 0 01-.458.458H7.792a.454.454 0 01-.459-.458c0-.257.202-.459.459-.459h1.833zm.458 3.209a.454.454 0 01-.458.458H7.792a.454.454 0 01-.459-.458c0-.257.202-.459.459-.459h1.833c.257 0 .458.202.458.459zm-.458 2.291c.257 0 .458.202.458.459a.454.454 0 01-.458.458H7.792a.454.454 0 01-.459-.458c0-.257.202-.459.459-.459h1.833zm0 2.75c.257 0 .458.202.458.459a.454.454 0 01-.458.458H7.792a.454.454 0 01-.459-.458c0-.257.202-.459.459-.459h1.833zm-4.125.459a.454.454 0 01-.458.458H3.208a.454.454 0 01-.458-.458c0-.257.202-.459.458-.459h1.834c.256 0 .458.202.458.459zm-.458-8.709c.256 0 .458.202.458.459a.454.454 0 01-.458.458H3.208a.454.454 0 01-.458-.458c0-.257.202-.459.458-.459h1.834zm0 2.75c.256 0 .458.202.458.459a.454.454 0 01-.458.458H3.208a.454.454 0 01-.458-.458c0-.257.202-.459.458-.459h1.834zm0 2.75c.256 0 .458.202.458.459a.454.454 0 01-.458.458H3.208a.454.454 0 01-.458-.458c0-.257.202-.459.458-.459h1.834zm3.208 6.875a.46.46 0 00-.458-.458h-2.75a.454.454 0 00-.459.458v4.125h-.916v-4.125c0-.76.614-1.375 1.375-1.375h2.75c.76 0 1.375.615 1.375 1.375v4.125H8.25v-4.125z"/><path d="M4.583 21.083h4.584v.459a.454.454 0 01-.459.458H4.125a.454.454 0 01-.458-.458v-.459h.916z"/><path d="M1.604.183l10.074 1.531a1.37 1.37 0 011.155 1.357v5.261l-.366-.073a.482.482 0 00-.385.092.487.487 0 00-.165.357V3.071a.463.463 0 00-.385-.459L1.457 1.091c-.027-.01-.054-.01-.082-.01-.11 0-.21.037-.293.11a.438.438 0 00-.165.349v19.085c0 .257.21.458.458.458h2.292v.459c0 .256.201.458.458.458h-2.75C.615 22 0 21.386 0 20.625V1.54C0 1.137.174.752.486.495A1.376 1.376 0 011.604.183z"/></g><defs><clipPath id="clip0_669_1608"><path fill="#fff" d="M0 0h22v22H0z"/></clipPath></defs></svg>