<svg width="28" height="28" fill="none" xmlns="http://www.w3.org/2000/svg"><g clip-path="url(#clip0_917_2467)" fill="#EF7F1A"><path d="M24.685 19.328a3.387 3.387 0 001.346-2.703c0-1.87-1.52-3.39-3.39-3.39a3.394 3.394 0 00-3.391 3.39c0 1.102.529 2.082 1.345 2.702a5.345 5.345 0 00-1.81 1.231 5.393 5.393 0 00-2.74-2.543 3.387 3.387 0 001.346-2.702c0-1.87-1.521-3.39-3.391-3.39a3.394 3.394 0 00-3.39 3.39c0 1.102.528 2.083 1.345 2.702a5.393 5.393 0 00-2.74 2.543 5.344 5.344 0 00-1.81-1.231 3.387 3.387 0 001.345-2.702c0-1.87-1.521-3.39-3.39-3.39a3.394 3.394 0 00-3.391 3.39c0 1.102.529 2.083 1.346 2.703A5.368 5.368 0 000 24.28v3.172c0 .302.245.547.547.547h26.906a.547.547 0 00.547-.547V24.28a5.368 5.368 0 00-3.315-4.953zM3.063 16.625a2.3 2.3 0 012.296-2.297 2.3 2.3 0 012.297 2.297 2.3 2.3 0 01-2.297 2.297 2.3 2.3 0 01-2.296-2.297zm5.578 6.344v3.937H1.094v-2.625a4.27 4.27 0 014.265-4.265c1.357 0 2.62.64 3.424 1.723a5.355 5.355 0 00-.142 1.23zm3.062-7.656A2.3 2.3 0 0114 13.016a2.3 2.3 0 012.297 2.297A2.3 2.3 0 0114 17.61a2.3 2.3 0 01-2.297-2.297zm6.563 11.593H17.18v-1.724a.547.547 0 00-1.094 0v1.724H9.734V22.97A4.27 4.27 0 0114 18.703a4.27 4.27 0 014.266 4.266v3.937zm2.078-10.281a2.3 2.3 0 012.297-2.297 2.3 2.3 0 012.297 2.297 2.3 2.3 0 01-2.297 2.297 2.3 2.3 0 01-2.297-2.297zm6.562 10.281H19.36V22.97c0-.423-.05-.835-.142-1.23a4.257 4.257 0 013.424-1.724 4.27 4.27 0 014.265 4.266v2.625zM19.418 1.684a.547.547 0 00-.773 0l-1.877 1.877a.547.547 0 10.773.773l1.877-1.876a.547.547 0 000-.774zM11.232 3.56L9.356 1.685a.547.547 0 00-.774.774l1.877 1.876a.545.545 0 00.773 0 .547.547 0 000-.773zM14 0a.547.547 0 00-.547.547v1.175a.547.547 0 001.094 0V.547A.547.547 0 0014 0zm4.25 6.177a.803.803 0 00-.653-.55l-1.985-.288-.888-1.799A.803.803 0 0014 3.09a.803.803 0 00-.724.45l-.888 1.799-1.985.289a.803.803 0 00-.652.55.803.803 0 00.204.827l1.437 1.4-.34 1.978a.803.803 0 00.322.79.805.805 0 00.85.061L14 10.301l1.776.933c.274.144.6.12.85-.061a.803.803 0 00.322-.79l-.34-1.977 1.437-1.4a.803.803 0 00.204-.829zm-2.512 1.55a.808.808 0 00-.233.715l.267 1.555-1.396-.734a.807.807 0 00-.752 0l-1.396.734.267-1.555a.808.808 0 00-.232-.715l-1.13-1.1 1.56-.227a.807.807 0 00.61-.442L14 4.544l.759 1.537c.08.161.233.273.411.299l1.697.247-1.13 1.1z"/><path d="M17.02 22.666a.551.551 0 00-.772 0 .55.55 0 000 .774.55.55 0 00.773 0 .552.552 0 00.16-.387.554.554 0 00-.16-.387z"/></g><defs><clipPath id="clip0_917_2467"><path fill="#fff" d="M0 0h28v28H0z"/></clipPath></defs></svg>