<svg width="22" height="22" fill="none" xmlns="http://www.w3.org/2000/svg"><path d="M10.843 10.598c1.456 0 2.717-.523 3.747-1.553 1.03-1.03 1.552-2.29 1.552-3.746s-.522-2.717-1.552-3.747C13.56.522 12.299 0 10.843 0S8.127.522 7.097 1.552c-1.03 1.03-1.553 2.29-1.553 3.747 0 1.456.523 2.716 1.553 3.746 1.03 1.03 2.29 1.553 3.746 1.553zM8.008 2.463c.79-.79 1.718-1.175 2.835-1.175s2.045.384 2.835 1.175c.79.79 1.175 1.718 1.175 2.835s-.384 2.044-1.175 2.835c-.79.79-1.718 1.174-2.835 1.174S8.8 8.924 8.008 8.134c-.79-.79-1.174-1.718-1.174-2.835s.384-2.045 1.174-2.835zm12.107 14.454c-.03-.429-.09-.896-.178-1.39-.09-.498-.205-.968-.342-1.398a6.912 6.912 0 00-.575-1.303 4.915 4.915 0 00-.866-1.13 3.818 3.818 0 00-1.245-.781 4.3 4.3 0 00-1.589-.288c-.224 0-.441.092-.86.365-.259.169-.561.363-.898.579-.288.183-.679.355-1.16.511-.471.152-.949.23-1.42.23-.472 0-.95-.078-1.42-.23-.482-.155-.873-.328-1.16-.511a102.02 102.02 0 01-.898-.579c-.42-.273-.637-.365-.861-.365-.572 0-1.107.097-1.589.288a3.818 3.818 0 00-1.245.782 4.915 4.915 0 00-.866 1.129c-.239.42-.432.859-.574 1.303-.138.43-.253.9-.342 1.398a12.7 12.7 0 00-.178 1.39c-.03.42-.044.858-.044 1.3 0 1.148.365 2.078 1.085 2.763.71.677 1.65 1.02 2.795 1.02H16.28c1.143 0 2.084-.343 2.795-1.02.72-.685 1.085-1.615 1.085-2.764 0-.443-.015-.88-.044-1.3zm-1.93 3.13c-.47.446-1.093.664-1.907.664H5.685c-.813 0-1.437-.218-1.906-.665-.461-.438-.685-1.037-.685-1.83 0-.412.014-.819.04-1.21a11.688 11.688 0 01.462-2.484c.116-.36.273-.716.468-1.06.186-.327.4-.608.637-.834.22-.212.5-.385.828-.515a2.97 2.97 0 011.015-.196c.045.024.126.07.256.155.265.173.57.37.908.586.38.242.871.462 1.457.65a5.9 5.9 0 001.817.293 5.92 5.92 0 001.816-.292c.586-.19 1.076-.409 1.458-.652.345-.22.642-.412.907-.585.13-.085.21-.13.256-.155.37.01.712.076 1.016.196.328.13.607.304.828.515.236.226.45.507.636.835.195.343.353.7.468 1.06.12.375.221.79.3 1.231.081.449.135.87.162 1.253.027.39.041.796.041 1.21 0 .792-.224 1.39-.685 1.83z" fill="#EF7F1A"/></svg>