<svg width="33" height="33" fill="none" xmlns="http://www.w3.org/2000/svg"><path d="M16.474 33c-5.352 0-9.706-4.354-9.706-9.707V9.707C6.768 4.354 11.122 0 16.474 0c5.353 0 9.707 4.354 9.707 9.707v13.586c0 5.353-4.354 9.707-9.707 9.707zm7.727-23.293c0-4.26-3.466-7.727-7.727-7.727-4.26 0-7.726 3.466-7.726 7.727v13.586c0 4.26 3.466 7.727 7.726 7.727s7.727-3.466 7.727-7.727V9.707z" fill="#fff"/><path d="M16.474 26.435a.99.99 0 01-.99-.99V20.89a.99.99 0 111.98 0v4.556a.99.99 0 01-.99.99z" fill="#fff"/></svg>