<svg width="22" height="22" fill="none" xmlns="http://www.w3.org/2000/svg"><g clip-path="url(#clip0_647_673)" fill="#EF7F1A"><path d="M21.762 10.525L20.43 9.288a.789.789 0 01-.203-.305L19.18 6.141a2.103 2.103 0 00-1.964-1.367H15.63v-.445a.721.721 0 00-.721-.721H5.322a.548.548 0 00-.553.526.536.536 0 00.536.546h9.25v4.65a.721.721 0 00.722.721h4.357l1.294 1.165v4.344h-1.173a2.315 2.315 0 00-4.514 0h-3.61a2.315 2.315 0 00-4.513 0H5.323a.547.547 0 00-.553.526.536.536 0 00.536.546h1.822a2.315 2.315 0 004.495 0h3.628a2.315 2.315 0 004.496 0h1.532a.721.721 0 00.722-.722v-4.85a.724.724 0 00-.239-.536zM15.63 8.98V5.846h1.586a1.027 1.027 0 01.959.668l.914 2.466h-3.46zm-6.253 8.34a1.244 1.244 0 110-2.487 1.244 1.244 0 010 2.487zm8.123 0a1.243 1.243 0 110-2.486 1.243 1.243 0 010 2.486z"/><path d="M3.017 7.679h6.079a.536.536 0 000-1.073h-6.08a.536.536 0 000 1.073zm6.615 2.441a.536.536 0 00-.536-.536H.537a.536.536 0 100 1.072h8.559a.536.536 0 00.536-.536zm-3.395 2.978a.536.536 0 00-.537-.536H1.975a.536.536 0 000 1.072H5.7a.536.536 0 00.537-.536z"/></g><defs><clipPath id="clip0_647_673"><path fill="#fff" d="M0 0h22v22H0z"/></clipPath></defs></svg>