<svg width="17" height="17" fill="none" xmlns="http://www.w3.org/2000/svg"><g clip-path="url(#clip0_905_3140)"><path d="M11.925 3.777a1.64 1.64 0 001.638-1.639A1.64 1.64 0 0011.925.5a1.64 1.64 0 00-1.638 1.638 1.64 1.64 0 001.638 1.639zm0-2.277a.64.64 0 11-.002 1.278.64.64 0 01.002-1.278zM9.34 8.62h5.168a.5.5 0 00.5-.5V6.333a2.263 2.263 0 00-2.26-2.26H11.1a2.263 2.263 0 00-2.26 2.26V8.12a.5.5 0 00.5.5zm.5-2.286c0-.695.565-1.26 1.26-1.26h1.647c.696 0 1.261.565 1.261 1.26V7.62H9.841V6.334zm6.617 6.783c-.156-.641-.93-1.344-1.553-1.821-.564-.433-1.428-.991-2.005-1.14-.418-.107-.652.028-.774.161 0 0-.964 1.05-1.301 1.39-.054.053-.22.053-.423-.002-.737-.196-1.884-1.007-2.992-2.115C6.301 8.482 5.49 7.335 5.294 6.598c-.055-.203-.055-.37-.001-.423.339-.337 1.389-1.301 1.389-1.301.133-.122.268-.356.16-.774-.148-.577-.706-1.44-1.139-2.005-.477-.622-1.18-1.397-1.82-1.553-.345-.084-.67.009-.89.255L1.225 2.773C.301 3.806.26 5.37 1.105 7.296c.701 1.597 1.981 3.37 3.605 4.994 1.623 1.624 3.397 2.904 4.994 3.605.92.404 1.756.605 2.492.605.806 0 1.491-.242 2.03-.725l1.977-1.769c.246-.22.34-.545.255-.89zM13.56 15.03c-.908.813-2.38.421-3.454-.05-1.486-.653-3.151-1.86-4.69-3.397C3.88 10.045 2.674 8.38 2.022 6.894c-.472-1.074-.864-2.546-.05-3.454l1.714-1.916c.182.069.64.406 1.257 1.22.527.696.822 1.273.912 1.533-.401.369-.927.853-1.265 1.19-.228.225-.458.65-.26 1.389.243.91 1.13 2.197 2.374 3.44 1.244 1.245 2.53 2.133 3.441 2.376.739.197 1.164-.033 1.39-.26a51.5 51.5 0 001.19-1.266c.26.09.836.385 1.532.912.814.617 1.151 1.075 1.22 1.257L13.56 15.03z" fill="#EF7F1A"/></g><defs><clipPath id="clip0_905_3140"><path fill="#fff" transform="translate(.5 .5)" d="M0 0h16v16H0z"/></clipPath></defs></svg>