<svg width="83" height="83" fill="none" xmlns="http://www.w3.org/2000/svg"><circle opacity=".1" cx="41.5" cy="41.5" r="41.5" fill="#151515"/><circle opacity=".2" cx="42" cy="42" r="32" fill="#151515"/><circle cx="42" cy="42" r="25" fill="#151515"/><path d="M34.14 49.124h20.805v4.203H30V28h4.14v21.124z" fill="#FEFEFE"/><path d="M54.73 38.464l-8.629 8.358c-1.433 1.388-2.993 2.03-4.684 1.928-1.687-.104-3.272-.943-4.754-2.52-1.458-1.553-2.212-3.18-2.26-4.877-.05-1.696.628-3.24 2.025-4.629l8.728-8.452 2.573 2.74-8.641 8.369c-.86.832-1.287 1.645-1.287 2.443s.344 1.565 1.035 2.3c1.447 1.54 2.98 1.55 4.597.032l8.715-8.44 2.582 2.748z" fill="#FEFEFE"/></svg>