<svg width="26" height="26" fill="none" xmlns="http://www.w3.org/2000/svg"><path d="M0 13c0 7.18 5.82 13 13 13s13-5.82 13-13S20.18 0 13 0 0 5.82 0 13z" fill="#25D366"/><path fill-rule="evenodd" clip-rule="evenodd" d="M17.55 8.369A6.39 6.39 0 0013 6.5c-3.575 0-6.5 2.925-6.5 6.5 0 1.137.325 2.275.894 3.25L6.5 19.5l3.413-.894c.974.488 2.03.813 3.087.813 3.575 0 6.5-2.925 6.5-6.5 0-1.707-.731-3.332-1.95-4.55zM13 18.363c-.975 0-1.95-.244-2.762-.732l-.163-.081-2.031.569.569-1.95-.163-.244a5.227 5.227 0 01-.812-2.844c0-2.925 2.437-5.362 5.362-5.362 1.463 0 2.762.568 3.819 1.543 1.056 1.057 1.544 2.357 1.544 3.82 0 2.843-2.357 5.28-5.363 5.28zm2.925-4.063c-.163-.081-.975-.488-1.138-.488-.162-.08-.243-.08-.325.082-.08.162-.406.487-.487.65-.081.081-.162.081-.325.081-.162-.081-.65-.244-1.3-.813-.487-.406-.813-.974-.894-1.137-.081-.163 0-.244.082-.325l.243-.244c.082-.081.082-.162.163-.243.081-.082 0-.163 0-.244 0-.082-.325-.894-.488-1.219-.081-.244-.243-.244-.325-.244h-.325c-.081 0-.243 0-.406.163-.162.162-.569.568-.569 1.381 0 .813.569 1.544.65 1.706.082.082 1.138 1.788 2.763 2.438 1.381.569 1.625.406 1.95.406.325 0 .975-.406 1.056-.731.163-.406.163-.732.081-.732-.081-.406-.244-.406-.406-.487z" fill="#fff"/></svg>