<svg width="16" height="16" fill="none" xmlns="http://www.w3.org/2000/svg"><g clip-path="url(#clip0_641_702)"><path d="M12.688 10.375c-.927 0-1.743.456-2.256 1.149L6 9.254a2.79 2.79 0 00.125-.785c0-.372-.076-.726-.208-1.051l4.639-2.792a2.795 2.795 0 002.132.999A2.816 2.816 0 0015.5 2.812 2.816 2.816 0 0012.687 0a2.816 2.816 0 00-2.812 2.813c0 .357.074.696.196 1.01l-4.653 2.8a2.795 2.795 0 00-2.106-.967A2.816 2.816 0 00.5 8.47a2.815 2.815 0 002.813 2.812c.941 0 1.771-.469 2.282-1.181l4.418 2.262a2.775 2.775 0 00-.138.825A2.816 2.816 0 0012.688 16a2.816 2.816 0 002.812-2.813 2.816 2.816 0 00-2.813-2.812z" fill="currentColor"/></g><defs><clipPath id="clip0_641_702"><path fill="#fff" d="M0 0h16v16H0z"/></clipPath></defs></svg>