<svg width="26" height="26" fill="none" xmlns="http://www.w3.org/2000/svg"><path d="M0 13c0 7.18 5.82 13 13 13s13-5.82 13-13S20.18 0 13 0 0 5.82 0 13z" fill="#08C"/><path d="M6.581 12.763c3.49-1.52 5.817-2.523 6.981-3.007 3.325-1.383 4.015-1.623 4.466-1.63.099-.003.32.022.463.138a.504.504 0 01.17.325c.017.093.037.305.02.47-.18 1.894-.959 6.487-1.355 8.607-.168.897-.499 1.198-.819 1.227-.695.064-1.223-.46-1.896-.9-1.053-.691-1.649-1.121-2.671-1.795-1.182-.779-.416-1.207.258-1.907.176-.183 3.239-2.968 3.298-3.221.007-.032.014-.15-.056-.212s-.173-.04-.248-.024c-.105.024-1.788 1.137-5.049 3.338-.478.328-.91.487-1.298.48-.427-.01-1.25-.243-1.86-.441-.75-.244-1.346-.373-1.294-.787.027-.215.324-.436.89-.661z" fill="#fff"/></svg>