<svg width="22" height="22" fill="none" xmlns="http://www.w3.org/2000/svg"><g clip-path="url(#clip0_315_312)" fill="#fff"><path d="M9.688 0C4.346 0 0 4.346 0 9.688c0 5.343 4.346 9.689 9.688 9.689 5.343 0 9.689-4.346 9.689-9.689C19.377 4.346 15.03 0 9.688 0zm0 17.588c-4.356 0-7.9-3.544-7.9-7.9 0-4.355 3.544-7.9 7.9-7.9s7.9 3.544 7.9 7.9-3.544 7.9-7.9 7.9z"/><path d="M21.738 20.473l-5.127-5.127a.894.894 0 10-1.265 1.265l5.127 5.127a.891.891 0 001.265 0 .894.894 0 000-1.265z"/></g><defs><clipPath id="clip0_315_312"><path fill="#fff" d="M0 0h22v22H0z"/></clipPath></defs></svg>