<svg width="28" height="28" fill="none" xmlns="http://www.w3.org/2000/svg"><g clip-path="url(#clip0_917_2502)" fill="#EF7F1A"><path d="M9.333 15.867a3.733 3.733 0 100 7.466 3.733 3.733 0 000-7.466zm0 6.533a2.8 2.8 0 110-5.6 2.8 2.8 0 010 5.6z"/><path d="M17.267 17.733H15.1a5.988 5.988 0 00-.369-.891l1.532-1.532a.467.467 0 000-.66l-1.98-1.98a.467.467 0 00-.66 0l-1.532 1.532a6.014 6.014 0 00-.891-.369v-2.166a.467.467 0 00-.467-.467h-2.8a.467.467 0 00-.466.467v2.166a6.018 6.018 0 00-.892.369L5.044 12.67a.467.467 0 00-.66 0l-1.98 1.98a.467.467 0 000 .66l1.531 1.532a5.99 5.99 0 00-.368.891H1.4a.467.467 0 00-.467.467V21c0 .258.21.467.467.467h2.167c.099.306.222.604.368.891L2.403 23.89a.467.467 0 000 .66l1.98 1.98a.467.467 0 00.66 0l1.532-1.532c.287.146.585.27.892.368v2.167c0 .258.209.467.466.467h2.8a.467.467 0 00.467-.467v-2.167c.307-.098.605-.222.891-.368l1.532 1.531a.467.467 0 00.66 0l1.98-1.98a.467.467 0 000-.66l-1.532-1.531c.147-.287.27-.585.369-.891h2.167a.467.467 0 00.466-.467v-2.8a.467.467 0 00-.466-.467zm-.467 2.8h-2.05a.467.467 0 00-.452.35 5.1 5.1 0 01-.546 1.32.467.467 0 00.072.567l1.45 1.45-1.32 1.32-1.45-1.45a.467.467 0 00-.568-.072 5.091 5.091 0 01-1.319.546.467.467 0 00-.35.452v2.05H8.4v-2.05a.467.467 0 00-.35-.452 5.093 5.093 0 01-1.32-.546.467.467 0 00-.567.072l-1.45 1.45-1.32-1.32 1.45-1.45c.15-.15.18-.383.072-.567a5.102 5.102 0 01-.546-1.32.467.467 0 00-.452-.35h-2.05v-1.866h2.05a.467.467 0 00.452-.35c.12-.464.303-.908.546-1.32a.467.467 0 00-.072-.567l-1.45-1.45 1.32-1.32 1.45 1.45c.15.15.384.18.568.071a5.096 5.096 0 011.319-.546.467.467 0 00.35-.452v-2.05h1.867v2.05c0 .214.144.4.35.453.463.119.907.303 1.319.546a.467.467 0 00.567-.072l1.45-1.45 1.321 1.32-1.45 1.45a.467.467 0 00-.072.567 5.1 5.1 0 01.546 1.32c.053.206.24.35.452.35h2.05v1.866zm6.067-12.6h-1.489C21.27 5.227 20.207.861 16.8.494V.467A.467.467 0 0016.333 0h-2.8a.467.467 0 00-.466.467v.027c-3.407.367-4.47 4.733-4.578 7.44H7a.467.467 0 00-.467.466v1.867c0 .257.21.466.467.466h15.867a.467.467 0 00.466-.466V8.4a.467.467 0 00-.466-.467zM22.4 9.8H7.467v-.933H11.2v-.934H9.423c.097-2.365.954-6.107 3.644-6.497V5.6H14V.933h1.867V5.6h.933V1.436c2.69.39 3.547 4.132 3.644 6.497h-8.31v.934H22.4V9.8zm4.2 4.667h-.82l.58-.58a.467.467 0 000-.66l-1.32-1.32a.467.467 0 00-.66 0l-.58.58v-.82a.467.467 0 00-.467-.467h-1.866a.467.467 0 00-.467.467v.82l-.58-.58a.467.467 0 00-.66 0l-1.32 1.32a.467.467 0 000 .66l.58.58h-.82a.467.467 0 00-.467.466V16.8c0 .258.21.467.467.467h.82l-.58.58a.467.467 0 000 .66l1.32 1.32a.467.467 0 00.66 0l.58-.58v.82c0 .257.209.466.467.466h1.866a.467.467 0 00.467-.466v-.82l.58.58a.48.48 0 00.66 0l1.32-1.32a.467.467 0 000-.66l-.58-.58h.82a.467.467 0 00.467-.467v-1.867a.467.467 0 00-.467-.466zm-.467 1.866h-1.096a.467.467 0 00-.439.31 2.47 2.47 0 01-.093.227.467.467 0 00.093.531l.775.776-.663.66-.775-.777a.467.467 0 00-.53-.093 2.37 2.37 0 01-.227.093.467.467 0 00-.311.44v1.1h-.934v-1.096a.467.467 0 00-.31-.44 2.38 2.38 0 01-.228-.094.466.466 0 00-.53.094l-.775.773-.66-.66.777-.776a.467.467 0 00.093-.53 2.46 2.46 0 01-.093-.229.466.466 0 00-.444-.309h-1.096V15.4h1.096a.467.467 0 00.44-.309 2.47 2.47 0 01.092-.228.467.467 0 00-.093-.531l-.772-.775.66-.66.776.776c.139.14.352.178.53.094a2.19 2.19 0 01.226-.094.467.467 0 00.311-.444v-1.096h.934v1.097c0 .197.124.374.311.44.077.026.152.058.225.093a.467.467 0 00.532-.093l.775-.776.66.66-.777.778a.466.466 0 00-.093.53c.035.075.066.151.093.229a.467.467 0 00.44.309h1.1v.933z"/><path d="M22.4 14a1.867 1.867 0 100 3.733 1.867 1.867 0 000-3.733zm0 2.8a.933.933 0 110-1.866.933.933 0 010 1.866z"/></g><defs><clipPath id="clip0_917_2502"><path fill="#fff" d="M0 0h28v28H0z"/></clipPath></defs></svg>