<svg width="28" height="28" fill="none" xmlns="http://www.w3.org/2000/svg"><path d="M22.2 3.669h-2.534V2.535c0-.366-.4-.533-.766-.533h-1.967c-.466-1.333-1.633-2-2.966-2a3.033 3.033 0 00-2.967 2H9.067c-.367 0-.733.167-.733.533V3.67H5.8A2.833 2.833 0 003 6.37v19.098C3 26.933 4.334 28 5.8 28h16.398c1.467 0 2.8-1.067 2.8-2.533V6.368a2.833 2.833 0 00-2.8-2.7zM9.666 3.335H11.5a.733.733 0 00.633-.6 1.933 1.933 0 011.834-1.5 1.9 1.9 0 011.8 1.5c.06.329.333.575.666.6h1.9v2.667H9.667V3.335zm13.999 22.132c0 .733-.733 1.2-1.467 1.2H5.801c-.734 0-1.467-.467-1.467-1.2V6.368a1.5 1.5 0 011.467-1.366h2.533v1.7a.7.7 0 00.733.633h9.832a.733.733 0 00.767-.633v-1.7H22.2a1.5 1.5 0 011.467 1.366v19.099z" fill="#EF7F1A"/><path d="M11.433 14.9a.667.667 0 00-.933-.032L8.367 16.9l-.9-.934a.667.667 0 00-.933-.033.7.7 0 000 .967L7.9 18.3a.6.6 0 00.467.2.667.667 0 00.466-.2l2.6-2.467a.633.633 0 000-.933zM21 16.334h-7.667a.667.667 0 100 1.334H21a.667.667 0 000-1.334zm-9.567-6.766a.667.667 0 00-.933-.033l-2.133 2.033-.9-.933a.667.667 0 00-.933-.034.7.7 0 000 .967l1.366 1.4a.6.6 0 00.467.2.667.667 0 00.466-.2l2.6-2.466a.633.633 0 000-.934zM21 11.001h-7.667a.667.667 0 100 1.334H21A.667.667 0 0021 11zm-9.567 9.233a.667.667 0 00-.933-.033l-2.133 2.033-.9-.934a.667.667 0 00-.933-.033.7.7 0 000 .967l1.366 1.4a.6.6 0 00.467.2.667.667 0 00.466-.2l2.6-2.467a.633.633 0 000-.933zM21 21.667h-7.667a.667.667 0 000 1.333H21a.667.667 0 000-1.333z" fill="#EF7F1A"/></svg>