<svg width="60" height="63" fill="none" xmlns="http://www.w3.org/2000/svg"><g clip-path="url(#clip0_648_774)" fill="#EF7F1A"><path d="M13.5 46.87a2.344 2.344 0 01-2.343-2.344V28.122a2.344 2.344 0 014.687 0v16.404a2.343 2.343 0 01-2.343 2.343z"/><path d="M50.008 58.635L20.834 10.01c-3.31-5.518-11.35-5.53-14.667 0l-29.175 48.624c-2.759 4.598.56 10.497 5.944 10.497h61.128c5.384 0 8.702-5.9 5.944-10.497zm-5.944 5.81h-61.128c-1.746 0-2.817-1.914-1.924-3.4l29.174-48.623c1.496-2.494 5.13-2.497 6.629 0l29.174 48.623c.891 1.484-.177 3.4-1.925 3.4z"/><path d="M13.5 56.243a3.515 3.515 0 100-7.03 3.515 3.515 0 000 7.03z"/></g><defs><clipPath id="clip0_648_774"><path fill="#fff" transform="translate(-17.985)" d="M0 0h77.985v75H0z"/></clipPath></defs></svg>