<svg width="23" height="23" fill="none" xmlns="http://www.w3.org/2000/svg"><g clip-path="url(#clip0_633_701)" fill="#EF7F1A"><path d="M11.927.926C7.533.926 3.959 4.5 3.959 8.893c0 5.453 7.13 13.457 7.434 13.795a.718.718 0 001.067 0c.304-.338 7.434-8.342 7.434-13.795 0-4.393-3.574-7.967-7.967-7.967zm0 20.184c-2.4-2.85-6.533-8.475-6.533-12.216a6.54 6.54 0 016.533-6.533 6.54 6.54 0 016.532 6.532c0 3.742-4.132 9.365-6.532 12.217z"/><path d="M11.927 4.885a4.013 4.013 0 00-4.009 4.008 4.013 4.013 0 004.009 4.01 4.013 4.013 0 004.008-4.01 4.013 4.013 0 00-4.008-4.008zm0 6.582a2.577 2.577 0 01-2.574-2.574 2.577 2.577 0 012.574-2.573A2.577 2.577 0 0114.5 8.893a2.577 2.577 0 01-2.573 2.574z"/></g><defs><clipPath id="clip0_633_701"><path fill="#fff" transform="translate(.926 .926)" d="M0 0h22v22H0z"/></clipPath></defs></svg>