<svg width="22" height="22" fill="none" xmlns="http://www.w3.org/2000/svg"><path d="M18.73 3.773c-.112-1.425-1.323-2.55-2.796-2.55H2.806C1.259 1.222 0 2.462 0 3.988v12.8c0 1.525 1.259 2.767 2.806 2.767h15.166c1.547 0 2.806-1.242 2.806-2.767V6.436c0-1.266-.868-2.336-2.048-2.663zM2.806 2.515h13.128c.713 0 1.31.495 1.46 1.155H2.805c-.55 0-1.062.157-1.495.427v-.108c0-.813.67-1.474 1.495-1.474zm15.166 15.748H2.806A1.486 1.486 0 011.31 16.79V6.436c0-.813.67-1.474 1.495-1.474h15.166c.824 0 1.495.661 1.495 1.474v2.255h-4.18c-1.655 0-3.003 1.329-3.003 2.962 0 1.633 1.348 2.961 3.004 2.961h4.179v2.175c0 .813-.67 1.474-1.495 1.474zm1.495-4.941h-4.18a1.683 1.683 0 01-1.692-1.67c0-.92.76-1.668 1.693-1.668h4.179v3.338z" fill="#EF7F1A"/><path d="M15.278 12.222a.611.611 0 100-1.222.611.611 0 000 1.222z" fill="#EF7F1A"/></svg>