<svg width="28" height="28" fill="none" xmlns="http://www.w3.org/2000/svg"><path d="M5.797 28h16.406a2.464 2.464 0 002.461-2.46V8.202h-5.742a2.464 2.464 0 01-2.461-2.46V0H5.797a2.464 2.464 0 00-2.461 2.46v23.08A2.464 2.464 0 005.796 28zm3.281-16.46h9.844a.82.82 0 110 1.64H9.078a.82.82 0 110-1.64zm0 3.28h9.844a.82.82 0 110 1.64H9.078a.82.82 0 110-1.64zm0 3.282h9.844a.82.82 0 110 1.64H9.078a.82.82 0 110-1.64zm0 3.28h6.563a.82.82 0 110 1.641H9.078a.82.82 0 110-1.64z" fill="#EF7F1A"/><path d="M18.922 6.563h5.261L18.102.48v5.261c0 .453.367.82.82.82z" fill="#EF7F1A"/></svg>