<svg width="42" height="42" fill="none" xmlns="http://www.w3.org/2000/svg"><path d="M39.112 12.338a1.313 1.313 0 00-1.05-.525H9.189V7.874a1.312 1.312 0 00-.381-.932L4.869 3.006a1.318 1.318 0 10-1.863 1.863l3.557 3.544V26.25a1.313 1.313 0 001.312 1.313h26.25a1.313 1.313 0 001.313-.932l3.937-13.125a1.313 1.313 0 00-.263-1.168zm-5.958 12.6H9.187v-10.5h27.117l-3.15 10.5zm-20.029 3.937a5.25 5.25 0 100 10.499 5.25 5.25 0 000-10.499zm0 7.875a2.625 2.625 0 110-5.25 2.625 2.625 0 010 5.25zm15.75-7.875a5.25 5.25 0 100 10.499 5.25 5.25 0 000-10.499zm0 7.875a2.625 2.625 0 110-5.25 2.625 2.625 0 010 5.25z" fill="#fff"/></svg>