<svg width="216" height="79" fill="none" xmlns="http://www.w3.org/2000/svg"><path d="M77.198.901H0V78.1h77.198V.9z" fill="#22201E"/><path d="M15.903 62.196h56.669v11.276H4.627V5.528h11.276v56.668z" fill="#FEFEFE"/><path d="M71.99 33.6L48.486 56.02c-3.905 3.724-8.155 5.447-12.758 5.174-4.595-.28-8.915-2.531-12.95-6.762-3.972-4.165-6.027-8.529-6.156-13.084-.138-4.547 1.71-8.688 5.516-12.415L45.91 6.258l7.01 7.35-23.538 22.45c-2.34 2.234-3.504 4.413-3.505 6.555-.002 2.141.939 4.199 2.82 6.172 3.94 4.13 8.117 4.156 12.52.083l23.739-22.643L71.99 33.6z" fill="#FEFEFE"/><path d="M97.969 31.689h10.493v3.98H93.026V11.682h4.943V31.69zm13.209 11.304v15.806c0 2.627-.821 4.701-2.463 6.23-1.642 1.525-3.886 2.29-6.731 2.29-2.8 0-5.027-.743-6.675-2.227-1.647-1.48-2.485-3.52-2.519-6.113V42.992h4.943v15.83c0 1.574.377 2.716 1.13 3.435.754.72 1.794 1.08 3.121 1.08 2.778 0 4.189-1.462 4.234-4.38V42.993h4.96zm10.964-15.495h-7.435v5.051h8.726v3.12h-12.601v-18.8h12.575v3.147h-8.7v4.469h7.435v3.014zm10.516 3.509l4.258-14.14h4.315l-6.545 18.803h-4.042l-6.523-18.803h4.302l4.235 14.14zm21.65-3.509h-7.435v5.051h8.726v3.12h-12.601v-18.8h12.575v3.147h-8.701v4.469h7.436v3.014zm10.521 1.296h-3.086v6.876h-3.874V16.868h6.986c2.222 0 3.936.493 5.139 1.485 1.208.991 1.807 2.389 1.807 4.2 0 1.283-.277 2.354-.833 3.209-.555.86-1.393 1.543-2.521 2.05l4.068 7.677v.18h-4.16l-3.526-6.875zm-3.086-3.147h3.125c.974 0 1.728-.246 2.261-.74.534-.494.803-1.177.803-2.045 0-.886-.256-1.578-.758-2.085-.503-.507-1.274-.763-2.319-.763h-3.111v5.633h-.001zm17.123 10.023h-3.869V16.868h3.869V35.67zm18.878 0h-3.874l-7.537-12.372V35.67h-3.874V16.868h3.874l7.55 12.398V16.868h3.861V35.67zM216 33.294c-.697.838-1.68 1.485-2.958 1.948-1.274.463-2.684.692-4.231.692-1.631 0-3.054-.357-4.284-1.066-1.225-.71-2.173-1.741-2.838-3.094-.67-1.354-1.01-2.945-1.027-4.77v-1.278c0-1.877.317-3.503.947-4.878.635-1.376 1.547-2.425 2.737-3.152 1.195-.727 2.592-1.093 4.192-1.093 2.23 0 3.971.533 5.231 1.595 1.257 1.063 2.001 2.61 2.231 4.637h-3.769c-.172-1.075-.555-1.864-1.141-2.362-.591-.498-1.402-.75-2.438-.75-1.313 0-2.318.494-3.006 1.486-.687.991-1.04 2.463-1.044 4.42v1.2c0 1.974.37 3.464 1.119 4.473.75 1.01 1.847 1.512 3.293 1.512 1.459 0 2.494-.309 3.116-.93v-3.249h-3.526V25.78H216v7.515zm-94.276 26.811h-3.086v6.876h-3.874V48.18h6.986c2.222 0 3.936.493 5.139 1.485 1.208.992 1.807 2.389 1.807 4.2 0 1.283-.277 2.354-.833 3.21-.555.859-1.393 1.542-2.521 2.049l4.068 7.678v.18h-4.16l-3.526-6.876zm-3.086-3.147h3.125c.974 0 1.728-.246 2.261-.74.534-.494.802-1.177.802-2.045 0-.886-.255-1.578-.758-2.085-.502-.507-1.273-.762-2.318-.762h-3.112v5.632zm23.62 6.162h-6.792l-1.291 3.861h-4.117l6.995-18.802h3.592l7.039 18.802h-4.121l-1.305-3.86zm-5.747-3.147h4.702l-2.362-7.043-2.34 7.043zm16.801 3.888h8.224v3.12h-12.098V48.18h3.874v15.68z" fill="#fff"/></svg>