<svg width="210" height="70" fill="none" xmlns="http://www.w3.org/2000/svg"><path fill-rule="evenodd" clip-rule="evenodd" d="M70 0h140v70H70V0z" fill="#EF7F1A"/><path d="M70 0H0v70h70V0z" fill="#22201E"/><path d="M14.42 55.58h51.385v10.225H4.195V4.195H14.42V55.58z" fill="#FEFEFE"/><path d="M65.32 30.062L43.873 50.237c-3.562 3.352-7.428 4.89-11.596 4.612-4.169-.287-8.075-2.355-11.698-6.212-3.58-3.805-5.411-7.766-5.5-11.895-.09-4.13 1.609-7.87 5.077-11.223l21.7-20.403 6.309 6.703-21.511 20.226c-2.129 2.01-3.2 3.983-3.222 5.922-.012 1.938.826 3.808 2.522 5.61 3.54 3.774 7.332 3.828 11.358.154l21.68-20.393 6.328 6.724z" fill="#FEFEFE"/><path d="M88.835 27.917h9.514v3.61H84.353V9.775h4.482v18.142zm11.977 10.25V52.5c0 2.381-.744 4.263-2.233 5.65-1.49 1.381-3.523 2.075-6.104 2.075-2.539 0-4.558-.673-6.052-2.02-1.494-1.34-2.254-3.191-2.284-5.542V38.167h4.482V52.52c0 1.428.341 2.463 1.025 3.116.683.652 1.626.979 2.83.979 2.518 0 3.798-1.326 3.839-3.972V38.167h4.497zm9.942-14.05h-6.742v4.58h7.913v2.83h-11.426v-17.05h11.402v2.854h-7.889v4.053h6.742v2.733zm9.536 3.181l3.861-12.82h3.913l-5.935 17.049h-3.665l-5.915-17.05h3.901l3.84 12.821zm19.631-3.18h-6.742v4.58h7.913v2.829h-11.426v-17.05h11.402v2.854h-7.889v4.053h6.742v2.733zm9.54 1.174h-2.797v6.235h-3.513v-17.05h6.334c2.014 0 3.569.448 4.66 1.347 1.095.9 1.639 2.167 1.639 3.809 0 1.163-.252 2.134-.756 2.91-.503.779-1.263 1.398-2.286 1.858l3.689 6.962v.164h-3.773l-3.197-6.235zm-2.797-2.853h2.833c.883 0 1.567-.224 2.05-.672.484-.447.728-1.067.728-1.854 0-.804-.232-1.43-.688-1.89-.455-.46-1.155-.692-2.102-.692h-2.821v5.108zm15.526 9.088h-3.509v-17.05h3.509v17.05zm17.117 0h-3.513l-6.834-11.219v11.219h-3.513v-17.05h3.513l6.847 11.243V14.478h3.5v17.049zm16.554-2.154c-.631.759-1.522 1.346-2.682 1.766-1.154.42-2.433.628-3.836.628-1.479 0-2.77-.324-3.885-.968-1.111-.643-1.97-1.578-2.574-2.805-.607-1.227-.915-2.67-.931-4.324v-1.16c0-1.702.288-3.177.859-4.424.576-1.247 1.403-2.198 2.482-2.857 1.083-.66 2.35-.991 3.801-.991 2.022 0 3.601.483 4.744 1.447 1.139.963 1.814 2.365 2.022 4.204h-3.417c-.156-.975-.503-1.69-1.035-2.142-.536-.452-1.271-.68-2.21-.68-1.191 0-2.102.448-2.726 1.347-.623.9-.943 2.234-.947 4.009v1.087c0 1.79.336 3.141 1.015 4.056.68.915 1.675 1.371 2.986 1.371 1.322 0 2.262-.28 2.825-.843v-2.946h-3.197v-2.59h6.706v6.815zm-85.486 24.311h-2.798v6.235h-3.512v-17.05h6.334c2.014 0 3.569.448 4.66 1.347 1.095.9 1.639 2.167 1.639 3.81 0 1.162-.252 2.133-.756 2.908-.503.78-1.263 1.4-2.286 1.859l3.689 6.962v.164h-3.773l-3.197-6.235zm-2.798-2.853h2.834c.883 0 1.567-.224 2.05-.672.484-.447.728-1.067.728-1.854 0-.803-.232-1.43-.688-1.89-.455-.46-1.155-.692-2.102-.692h-2.822v5.108zm21.418 5.587h-6.159l-1.171 3.5h-3.732l6.342-17.048h3.257l6.383 17.049h-3.737l-1.183-3.501zm-5.211-2.854h4.264l-2.142-6.386-2.123 6.386h.001zm15.234 3.525h7.458v2.83h-10.971v-17.05h3.513v14.22z" fill="#22201E"/></svg>