<svg width="1091" height="677" fill="none" xmlns="http://www.w3.org/2000/svg"><path d="M67.684 477.567c-.5-.57-1.284-4.562-1.711-8.838-.428-4.348-1.141-8.126-1.498-8.482-.428-.357-2.282-1.212-4.136-1.925-2.853-.997-3.923-1.995-5.99-5.203-2.354-3.706-2.426-4.063-1.641-6.7.428-1.497 1.212-2.922 1.711-3.065 1.427-.57 6.633 1.64 10.199 4.277 2.21 1.711 4.065 2.566 5.633 2.566 1.926 0 2.782.57 4.85 3.065 2.353 2.851 2.567 3.492 2.567 7.698-.071 6.842-.927 9.551-4.35 13.4-3.708 4.134-4.564 4.561-5.634 3.207zm-6.989-58.66c-.784-.499-.784-1.141-.071-3.493 1.283-4.49.713-5.132-4.564-5.132h-4.565l-.499-3.635c-.428-3.207-.713-3.706-2.924-4.776-1.355-.641-2.496-1.568-2.496-2.138 0-1.212 5.563-9.408 6.419-9.408.356 0 .855.641 1.07 1.354.713 2.21 10.269 4.419 12.194 2.851.642-.57 3.851-1.14 7.488-1.354 5.848-.357 6.276-.285 6.633 1.069.784 2.851.356 4.918-1.426 7.341-2.283 2.851-3.566 8.411-2.354 9.837.642.784.5.997-.642.997-.856 0-2.638 1.426-4.421 3.564-2.71 3.208-3.28 3.564-5.92 3.564-1.64-.071-3.423-.285-3.922-.641zm141.49-4.847l-4.92-3.279-2.639 1.568c-3.922 2.21-7.702 1.925-12.052-.855-2.996-1.925-3.566-2.566-3.352-4.063.214-1.283-.571-2.637-3.495-5.631-3.637-3.777-3.851-3.92-5.562-2.993-1.854.926-5.563.641-7.56-.571-1.497-.997 2.782-4.561 9.2-7.84 2.924-1.568 6.347-3.279 7.488-3.92 1.498-.784 3.994-1.141 8.059-1.141 7.345 0 10.626 1.426 13.906 6.202 4.85 6.985 6.419 8.268 12.552 10.121 5.42 1.568 5.848 1.639 7.06.499 1.64-1.426 5.135-1.568 5.135-.214 0 .57-.499 1.425-1.07 1.924-.713.571-1.07 2.139-1.07 4.633v3.778l-3.993-.356c-3.352-.286-4.422-.072-6.633 1.354-6.846 4.561-5.634 4.49-11.054.784z" fill="#26323C"/><path d="M80.307 411.138c-3.352-1.141-3.494-1.283-3.138-3.422.214-1.283 1.355-3.635 2.568-5.274 1.996-2.78 2.139-3.35 1.782-7.128-.428-3.492-.285-4.134.785-4.561.856-.357 1.925.071 3.21 1.283 1.782 1.781 2.139 1.853 8.628 1.425 3.709-.214 7.488-.499 8.487-.641 1.426-.214 2.068.213 2.995 1.781.713 1.212 1.712 2.139 2.282 2.139 1.569 0 3.281 2.851 3.281 5.559 0 1.782-.571 2.923-2.211 4.491-2.496 2.352-4.065 2.494-8.629.926l-3.28-1.14-4.636 2.922c-4.992 3.208-6.704 3.422-12.124 1.64zm82.369 5.274c-5.42-6.914-9.057-10.406-10.626-10.406-.784 0-1.854-.499-2.353-1.069-.713-.927-.642-1.355.428-2.566 1.069-1.212 1.141-1.711.428-2.851-1.284-2.067-.5-2.78 2.995-2.78 2.068 0 3.708.499 5.42 1.71 3.138 2.353 9.485 3.849 11.054 2.566.927-.784 1.355-.712 2.638.428 3.566 3.065 4.779 4.847 4.351 6.771-.286 1.64.071 2.139 2.567 3.493 3.281 1.853 3.708 2.851 1.355 2.851-.856 0-2.282.641-3.138 1.497-1.284 1.14-1.854 1.283-2.995.712-2.71-1.496-4.992-.997-6.205 1.283-.57 1.141-1.355 2.281-1.711 2.495-.357.214-2.282-1.639-4.208-4.134zm-86.292 35.282c-1.783-2.21-2.924-2.922-5.277-3.279-1.854-.356-4.493-1.568-6.632-3.207-1.926-1.426-4.921-2.994-6.561-3.493-2.497-.713-3.067-1.212-3.067-2.494 0-.927-.642-3.493-1.426-5.774-1.855-5.417-1.855-5.631 1.07-6.985 1.354-.641 2.995-2.21 3.565-3.421 1.141-2.21 1.355-2.281 4.85-1.925 3.423.357 3.922.713 7.488 4.562 5.277 5.845 5.776 6.629 6.632 11.19.642 3.493 1.213 4.562 4.636 7.912 2.14 2.138 3.85 4.205 3.85 4.562 0 .356-.855 1.211-1.925 1.924-5.42 3.493-4.778 3.421-7.203.428zm23.963 9.123c-1.783-.926-2.853-2.138-3.423-3.849-.428-1.354-1.213-2.78-1.64-3.065-.5-.285-1.427-1.354-2.069-2.423-.713-1.069-2.21-2.067-3.423-2.352-1.212-.285-3.067-1.64-4.279-3.136l-2.14-2.566 2.497-.214c2.14-.214 2.995-.855 5.49-4.277 1.57-2.281 3.139-4.348 3.495-4.704.286-.356 1.355.285 2.282 1.354l1.712 1.996 3.138-1.283c1.711-.641 3.494-1.354 3.922-1.568.713-.285 8.13 8.624 8.13 9.694 0 .213-1.783 1.71-3.922 3.278l-3.922 2.851.142 5.275c.214 5.132.143 5.346-1.64 5.773-1.141.357-2.71.071-4.35-.784zm19.826-57.235c-.214-.855-.428-2.566-.428-3.777 0-2.139.214-2.281 3.138-2.78 4.065-.57 4.706-.143 4.706 3.278 0 3.137-.142 3.208-4.065 4.135-2.71.57-2.995.498-3.351-.856z" fill="#26323C"/><path d="M115.894 422.613c-.143-.214.142-1.354.641-2.566.856-2.067.714-2.637-1.569-7.626-2.068-4.562-2.424-5.845-1.996-8.696.499-3.92-1.284-8.411-3.281-8.411-.642 0-1.925-1.14-2.781-2.494l-1.498-2.495 2.354-4.277c1.925-3.492 2.781-4.419 4.849-4.989 4.065-1.14 5.491-.855 7.346 1.497 1.568 1.996 2.496 2.352 8.7 3.564 8.914 1.71 13.835 5.203 8.914 6.343-1.283.285-1.996 1.426-3.28 5.275-1.498 4.276-1.569 5.274-.856 7.698.428 1.496 1.712 3.563 2.853 4.49 2.353 1.924 2.425 2.566.642 6.415-1.284 2.851-1.427 2.922-6.561 3.849-2.924.499-7.275 1.354-9.699 1.853-2.425.499-4.565.713-4.778.57zm8.843-16.536l4.635-1.283.214-3.849c.285-5.631-.499-6.343-6.632-5.773l-4.992.499.214 4.989c.214 5.274.499 6.771 1.355 6.771.356 0 2.638-.641 5.206-1.354zm-44.644 33.999c-.356-.499-.998-2.851-1.498-5.132-.713-3.493-1.497-4.776-5.206-8.767-2.496-2.709-4.136-4.918-3.78-5.417 1.855-3.35 4.708-6.13 5.706-5.702.642.214 1.498-.072 2.068-.856.856-1.14 1.355-1.14 5.92-.285l4.991.927.428 3.492c.357 2.353 1.213 4.206 2.568 5.774 3.137 3.564 2.923 7.555-.642 12.544-2.568 3.778-2.782 3.921-6.347 4.135-2.425.142-3.851-.143-4.208-.713zm53.273 7.769c-2.211-2.21-2.282-2.21-5.563-1.354-2.353.641-3.494.712-3.637.142-.571-1.639-2.496-2.851-4.636-2.851-2.924-.071-3.28-.285-7.202-5.346-3.566-4.632-3.78-5.06-2.211-5.63.57-.214 1.854-1.996 2.852-3.992 1.141-2.281 2.354-3.706 3.424-3.92 3.779-.927 16.687-3.207 18.042-3.207 1.498 0 7.275 6.628 11.268 12.972l2.068 3.421-5.277 5.56c-2.924 3.136-5.634 5.773-6.133 6.058-.428.214-1.783-.641-2.995-1.853zm-66.609-56.95c-2.14-1.212-1.57-9.052 1.212-17.605 2.282-6.843 2.782-7.769 6.704-11.69 4.207-4.205 4.279-4.205 6.703-3.35 1.997.713 3.281 2.139 6.562 7.556l4.136 6.7h10.555l2.852 3.635c1.569 1.995 2.853 3.849 2.853 4.205 0 .784-4.208 8.624-5.278 9.765-.57.57-3.637 1.14-8.058 1.354l-7.203.499-1.783-2.067-1.783-2.067-3.423 1.568c-3.78 1.639-12.195 2.566-14.05 1.497z" fill="#26323C"/><path d="M112.185 474.93c-5.278-5.702-6.49-7.27-6.989-9.266-.357-1.639-.214-1.996 1.426-2.352 1.783-.499 1.783-.57 1.64-6.059-.142-3.065-.071-5.702.143-5.844 5.135-4.206 7.56-5.489 10.056-5.489 2.21 0 2.923.286 3.565 1.782.927 1.996.999 2.067 5.278.927 2.995-.713 3.423-.642 4.778.784l1.569 1.568-1.997 1.426-1.997 1.496.499 8.411.5 8.411-7.203 3.635c-3.994 1.995-7.488 3.635-7.845 3.635-.285 0-1.854-1.354-3.423-3.065zm26.03-87.741c-1.355-1.212-3.78-1.996-8.629-2.851-6.204-1.141-6.846-1.426-8.701-3.778-1.925-2.423-2.139-2.495-5.206-1.996-1.782.214-3.637.571-4.065.784-.499.143-2.353-1.639-4.207-3.991l-3.352-4.277h-4.778c-2.71-.071-5.206-.285-5.634-.57-1.07-.713-7.417-10.976-7.417-11.974 0-.499.999-1.283 2.14-1.711 2.638-1.14 3.209-2.138 3.922-6.771.856-6.059 2.639-7.698 4.778-4.491.784 1.212 2.71 1.925 8.13 3.065 3.851.856 8.059 1.996 9.342 2.495 1.997.855 2.71.784 7.061-1.069l4.778-2.067 4.136 4.419c3.566 3.849 4.35 4.348 5.563 3.706 2.139-1.14 3.352-.926 6.989 1.426 2.496 1.568 4.207 2.138 6.703 2.138 2.924 0 3.423.214 3.78 1.711.642 2.566-.642 5.132-4.422 8.838-4.207 4.063-6.703 9.979-5.206 12.331.785 1.283.642 1.782-.998 3.849-.998 1.354-2.068 2.494-2.353 2.423-.286 0-1.355-.713-2.354-1.639zm-40.436 45.83c-.642-1.14-1.426-2.067-1.712-2.067-.356 0-.57-1.14-.57-2.494 0-1.782-.642-3.208-2.21-4.99-1.927-2.209-2.283-3.136-2.354-6.628l-.072-3.992 3.21-1.996 3.209-1.995 4.207 1.211c4.137 1.141 4.279 1.141 6.847-.356l2.71-1.568 1.996 4.49c2.283 5.132 2.283 5.275.856 8.838-4.207 10.193-3.993 9.908-10.84 12.26l-4.065 1.426-1.212-2.139zm44.43-6.486c-5.278-6.629-5.064-5.773-2.924-10.549l1.854-4.276-2.567-2.352c-3.709-3.35-4.137-4.99-2.71-10.264.642-2.495 1.426-4.491 1.64-4.491.214 0 1.355 1.141 2.496 2.566 1.926 2.424 2.211 2.495 5.063 2.067 3.638-.499 4.707.428 2.782 2.566-1.213 1.283-1.213 1.568-.214 3.35.57 1.069 2.139 2.281 3.423 2.709 3.209.998 13.906 13.043 12.694 14.255-.713.713-17.116 8.126-17.9 8.054-.428 0-2.068-1.639-3.637-3.635zm-63.827 63.579c-1.783-1.141-3.495-2.067-3.923-2.139-.57 0-3.352-4.062-4.493-6.486-.07-.285 1.712-2.566 4.065-5.132 4.636-5.132 5.777-8.339 5.777-16.108v-4.134l3.994-2.709c4.492-2.993 6.989-2.993 8.13 0 .356.998.998 1.782 1.426 1.782.428 0 1.355 1.426 2.14 3.136.998 2.353 1.996 3.493 3.78 4.206 2.567 1.069 4.777 3.564 4.777 5.417 0 .641 2.282 3.492 4.992 6.486 4.493 4.847 4.992 5.631 4.992 8.339 0 3.707-1.141 3.992-4.849 1.141-2.282-1.711-2.781-1.853-7.773-1.426-2.924.214-5.492.57-5.706.713-.214.214-.57 1.497-.855 2.78-.428 2.067-.999 2.566-4.636 3.991-6.347 2.495-8.13 2.566-11.838.143z" fill="#26323C"/><path d="M141.567 396.027c-1.569-1.711-1.07-3.635 2.068-7.484 3.209-4.063 3.352-4.419 2.425-6.201-1.355-2.495.499-6.843 4.778-11.119 4.778-4.705 6.347-4.776 10.127-.713l2.852 2.993 1.997-1.354c1.783-1.212 1.997-1.211 2.853-.071.856 1.212 2.425 10.192 2.425 14.255 0 1.853-.357 2.495-1.641 2.78-.855.214-3.28 1.924-5.42 3.706-2.995 2.566-4.207 3.208-5.348 2.78-2.568-.855-11.197-.285-12.338.784-1.426 1.426-3.352 1.283-4.778-.356zM14.126 561.53a110.91 110.91 0 00-1.213-2.494c-.142-.285.5-.499 1.427-.499.927-.071 2.14-.357 2.71-.713.855-.57.927-.926.214-2.138-1.498-2.352-1.07-3.279 1.854-4.633 2.71-1.212 4.778-4.063 3.994-5.417-.286-.357-1.498-.642-2.853-.642-2.71 0-5.777-2.637-6.49-5.559-.642-2.495.143-2.709 2.568-.642 1.64 1.355 3.066 1.925 5.063 1.925 2.567 0 2.924.214 3.922 2.494 1.427 3.422 2.14 11.191 1.141 12.902-.713 1.211-.855 1.14-1.569-.998-.499-1.283-1.212-2.281-1.711-2.281-.428 0-2.21 2.352-3.994 5.345-1.711 2.923-3.352 5.346-3.637 5.346-.214 0-.856-.926-1.426-1.996zm93.851 29.366c-4.707-.499-9.128-.784-9.77-.57-.713.214-1.711.071-2.353-.285-.856-.499-.5-1.141 2.068-3.707l3.209-3.064-1.426-2.78c-1.57-3.136-1.783-2.923 4.493-4.134 2.282-.499 4.279-1.069 4.421-1.354.143-.214 0-2.067-.356-3.992-.642-3.279-.5-3.635 1.854-7.128 1.355-1.995 2.496-3.848 2.496-4.134 0-.285-1.64-.499-3.637-.499h-3.709l.5-5.702c.285-3.635.142-6.771-.428-8.838-.428-1.782-.642-3.492-.357-3.778.357-.285 3.067-.498 6.062-.427 4.707.071 5.634.356 6.704 1.639 1.569 1.925 1.64 3.279.214 4.704-1.142 1.141-1.284 3.35-.428 5.631.356.856.071 2.851-.714 5.203-1.568 4.562-1.283 5.275 3.21 8.625 1.783 1.354 3.423 2.922 3.565 3.564.214.641.571 3.991.785 7.555l.499 6.486-2.995 1.212c-2.995 1.14-3.067 1.14-2.567 3.991.499 3.35 1.568 3.208-11.34 1.782zm-56.839 27.941c-.642-1.283-.927-2.709-.713-3.065.286-.428 3.994-2.994 8.344-5.774 7.702-4.989 7.845-5.06 9.128-3.706.714.784 1.926 1.426 2.64 1.426 2.495 0 1.71 2.708-1.07 4.062-1.926.927-2.71 1.853-3.566 4.491l-1.141 3.35-5.135.499c-2.781.285-5.634.641-6.276.784-.713.214-1.497-.499-2.21-2.067z" fill="#26323C"/><path d="M58.84 650.982c-.213-.855-.427-3.848-.427-6.557 0-4.704-.143-5.132-3.637-10.406-3.21-4.918-3.495-5.774-3.067-8.126.57-3.207 2.14-3.92 8.843-3.92 5.349 0 5.42-.071 7.132-4.633.642-1.568 1.783-3.207 2.638-3.635 3.138-1.497 3.852-2.637 3.638-5.203-.143-2.21-.5-2.637-2.14-2.78-1.925-.285-2.924-1.354-6.133-6.7l-1.569-2.566 6.133-3.35 6.133-3.421 3.851 3.849c4.208 4.134 4.493 4.704 2.639 5.417-3.495 1.211-3.78 2.067-3.28 10.192.499 8.553.57 8.197-4.85 15.325l-2.71 3.635-.214 11.333-.214 11.404-3.566.784c-1.925.499-4.707.855-6.133.927-2.14.071-2.71-.214-3.066-1.569z" fill="#26323C"/><path d="M48 613.063c-.284-.713.143-1.853 1.142-2.851 1.426-1.497 1.569-2.209 1.14-5.702l-.498-3.92h5.277c6.419 0 9.556.57 10.056 1.782.285.784-2.64 2.851-15.048 10.905-1.426.855-1.64.855-2.068-.214zm-15.546-18.389c-.713-2.423-1.854-5.132-2.71-5.987l-1.426-1.568 3.566-1.782 3.565-1.853 3.852 2.138c2.068 1.14 5.919 3.207 8.557 4.633l4.779 2.495-1.427 2.423c-1.426 2.352-1.426 2.423-5.562 1.996-2.853-.214-5.278 0-7.631.784-1.854.641-3.566 1.211-3.851 1.211-.285 0-.999-1.995-1.712-4.49zm49.992-1.425c-3.494-3.208-4.35-4.562-5.563-8.34-.784-2.494-2.495-6.914-3.85-9.836-1.356-2.922-2.71-6.629-2.924-8.268-.5-3.065-4.636-11.19-6.847-13.4-.713-.784-2.282-1.283-3.708-1.283-1.997 0-2.496-.285-2.71-1.639-.143-1.283-.57-1.568-2.425-1.354-1.284.071-2.567-.286-2.995-.856-.713-.784-.214-1.069 2.852-1.497 2.069-.285 4.35-.997 4.992-1.568 1.07-.998 1.355-.784 3.067 1.925 1.07 1.639 2.282 3.991 2.781 5.274 1.64 4.419 2.211 4.918 6.276 5.203 3.851.357 3.923.285 4.85-1.924.927-2.21.998-2.281 4.279-1.782l3.423.428 2.638-4.277c1.427-2.423 2.425-4.704 2.14-5.061-.214-.427-1.712-.712-3.28-.712-2.354 0-2.853-.214-2.64-1.283.215-.998 1.142-1.283 5.563-1.426 4.137-.214 5.706-.57 6.847-1.639 1.64-1.568 2.424-1.212 2.424 1.069 0 2.281 1.355 3.35 3.067 2.423 2.425-1.283 2.995.357 2.995 8.91v7.983l2.71.214c1.426.142 2.639.499 2.639.855s-.785 1.782-1.783 3.207c-1.141 1.782-1.569 3.208-1.355 4.491.927 4.704.998 4.704-3.994 5.631-2.496.57-4.92 1.283-5.277 1.639-.428.356-.143 1.782.642 3.564l1.355 2.922-3.423 3.279c-3.424 3.35-3.424 3.35-1.926 4.562 1.997 1.639 1.926 2.138-.784 3.991-4.422 2.922-5.492 2.709-10.056-1.425zm-57.052-8.411c-1.64-1.283-10.127-14.754-9.628-15.253.143-.143 1.854-.998 3.78-1.782l3.495-1.497 2.21 2.637 2.282 2.637 2.354-1.211c3.209-1.568 3.78-1.497 5.135.855 1.14 1.853 1.14 1.996 0 2.708-1.142.713-1.142.998 0 3.992l1.14 3.279-2.139.855c-1.141.499-3.21 1.639-4.493 2.566-2.353 1.568-2.425 1.568-4.136.214z" fill="#26323C"/><path d="M25.964 566.734c-1.07-1.355-2.282-2.495-2.781-2.495-.428 0-2.639.927-4.85 1.996-2.282 1.069-4.35 1.782-4.635 1.497-.285-.285-1.712-.856-3.138-1.283-3.067-.998-3.494-2.424-3.494-12.331 0-5.061-.357-7.27-2.211-12.473-2.853-8.126-4.065-12.474-4.636-16.75-.428-3.065-.285-3.422.927-3.422.714 0 1.926.927 2.568 2.139 1.64 2.708 2.71 2.637 6.632-.143 2.924-2.138 3.352-2.21 7.702-1.782 5.42.499 5.99.071 6.276-4.918.214-3.849 0-3.706 6.062-2.78 2.068.357 2.282.57 1.925 2.352-.57 2.709 1.284 4.562 3.566 3.707 1.355-.499 1.997-.285 3.067.926 3.28 3.778 3.28 3.778 1.996 7.627l-1.212 3.564 2.639 3.92c2.068 3.065 2.567 4.49 2.353 6.557-.214 2.638-.285 2.709-3.209 2.709-2.71 0-3.21.285-4.85 2.637-2.068 3.065-2.139 3.849-.641 7.698 1.14 2.708 1.07 2.851-.357 4.063-.784.712-1.925 2.566-2.425 4.134-.641 1.782-1.782 3.278-3.209 4.134l-2.14 1.283-1.925-2.566zm-6.062-5.916l3.067-4.776.998 2.281c1.284 3.136 2.64 2.922 4.065-.713.927-2.566.999-3.991.5-8.41-1.142-8.767-2.496-10.62-7.774-10.62-.998 0-2.71-.856-3.85-1.925-1.712-1.639-2.212-1.782-3.78-1.069-2.425 1.14-2.283 3.991.427 7.627 1.498 1.924 2.853 2.922 4.35 3.207 3.424.499 3.139 1.782-.927 3.421-3.708 1.568-3.85 1.853-2.496 5.203.428.856 0 1.212-1.64 1.569-1.355.285-2.21.855-2.21 1.568 0 1.995 3.636 7.484 4.992 7.484.784 0 2.424-1.782 4.278-4.847zm21.395 47.683c-4.707-1.211-5.42-1.924-6.704-6.201-.356-1.354 0-1.639 3.28-2.423 2.069-.428 5.207-.713 6.99-.641l3.209.285.214 4.134c.214 3.777-.57 6.343-1.926 6.129-.214-.071-2.496-.641-5.063-1.283z" fill="#26323C"/><path d="M53.634 598.523c-1.996-.214-1.996-.57-.214-3.279 1.926-2.993 1.855-3.492-1.212-4.918-1.497-.713-5.277-2.708-8.486-4.49-5.35-3.065-5.777-3.493-6.419-6.415-.642-2.709-.57-3.065.5-3.065 2.282 0 2.139-1.354-.357-5.132-1.426-2.067-2.568-4.348-2.568-5.061 0-1.781 1.284-4.205 2.996-5.559 1.426-1.14 1.426-1.212.214-5.132-1.213-3.778-1.213-4.063-.072-5.845.856-1.283 1.712-1.782 3.138-1.71 1.07.071 2.71-.214 3.637-.713 1.498-.855 1.926-.713 4.636 1.996 2.14 2.067 3.423 2.78 4.279 2.494.855-.356 1.355-.071 1.64.998.285 1.283.927 1.568 3.352 1.568 2.781 0 3.066.143 5.705 4.348 1.854 2.78 3.138 5.916 3.709 8.696.427 2.423 1.996 6.7 3.351 9.48 3.28 6.628 4.35 10.335 3.138 11.404-.428.428-3.066 1.996-5.848 3.492-6.418 3.422-6.917 3.849-6.49 5.631.357 1.355.072 1.497-3.351 1.497-2.068 0-4.422-.142-5.278-.285zm17.259-42.695c-2.639-.356-3.922-1.354-3.922-3.136 0-1.853-4.85-10.549-6.134-11.048-.57-.213-1.711.428-2.496 1.497-1.426 1.782-1.854 1.853-6.204 1.711l-4.778-.214-.357-2.851c-.214-1.568-1.497-4.419-2.781-6.344l-2.353-3.492 1.212-3.707 1.284-3.777-2.64-3.279c-2.78-3.35-3.137-3.564-5.99-3.35-1.283.143-1.64-.143-1.426-1.14.214-1.07.927-1.283 3.566-1.283 1.854 0 3.78-.428 4.279-.998.998-.998.071-1.996-4.778-5.56-2.069-1.497-2.069-1.568-.785-2.993.998-1.141 2.21-1.497 4.493-1.497 2.781 0 3.566.427 7.488 3.991l4.35 4.063 2.211-2.495c1.212-1.354 3.352-4.062 4.707-5.916 1.854-2.566 3.21-3.706 5.349-4.276 4.564-1.354 5.919-2.352 6.775-5.203 1.355-4.063 1.783-4.206 5.848-1.64 3.137 1.925 4.136 2.21 6.275 1.853 5.349-1.069 5.206-1.14 6.347 3.778 1.213 4.989 1.284 4.847-3.85 8.411-1.427.998-1.427.998.213 4.063 1.64 3.064 1.64 3.136.428 5.702-1.212 2.494-1.426 2.637-4.707 2.637-3.565 0-7.702 1.568-7.702 2.851 0 .428.5 1.782 1.141 2.922.927 1.853.999 2.78.357 5.346-1.07 4.063.142 8.339 2.781 10.264 1.498 1.069 1.854 1.782 1.57 3.492-.286 2.139-.215 2.21 2.71 2.21h2.923l-1.64 2.922c-1.64 2.923-1.64 2.923-4.992 2.495-3.21-.357-3.495-.285-4.493 1.71-1.284 2.424-1.57 2.566-4.28 2.281z" fill="#26323C"/><path d="M120.172 541.858c-1.069-2.494-2.353-2.993-9.342-3.492-2.353-.214-9.2.998-10.127 1.782-.927.784-1.14.427-1.925-3.208-.57-2.566-1.427-2.423-4.065.57-2.14 2.353-2.425 2.495-7.06 2.495-6.49 0-8.202-.784-9.272-3.991-.641-1.996-.641-3.279 0-5.631.714-2.566.642-3.421-.356-5.346-1.64-3.207-.785-3.778 5.92-3.92 2.923 0 3.137-.214 4.991-3.493l1.854-3.421-1.497-2.708-1.57-2.709 2.925-2.423 2.995-2.495-.927-4.205c-.5-2.352-1.07-4.847-1.212-5.631-.286-1.069.285-1.782 2.282-2.851 2.567-1.426 3.352-2.281 4.136-4.847.285-.998 1.212-1.212 4.635-1.212 2.354 0 4.493.357 4.779.784.214.357 1.426 1.355 2.638 2.067 1.141.713 2.996 2.851 3.994 4.705 1.783 3.278 2.068 3.492 7.06 4.918 2.853.784 5.492 1.924 5.919 2.494.785 1.355.856 6.13 0 8.981-.855 2.923.072 4.277 3.21 4.847 1.854.356 2.924 1.14 3.993 2.994.856 1.425 2.496 2.993 3.637 3.492 1.498.57 2.425 1.711 3.067 3.564.499 1.497.784 2.994.57 3.279-.142.285-2.995 1.995-6.275 3.777-6.847 3.707-7.346 4.206-7.702 7.413-.143 1.853-.785 2.637-3.21 4.063l-2.995 1.782-1.07-2.424zm132.219-153.672c-.998-.356-2.71-.641-3.779-.641-1.284-.071-2.639-.784-3.495-1.924-1.283-1.569-1.783-1.782-4.207-1.355l-2.782.428v-2.78c0-2.209-.285-2.922-1.355-3.207-.784-.214-2.068-1.711-2.852-3.279-1.498-2.922-2.924-3.564-4.992-2.281-.5.285-1.783.357-2.853.071-1.498-.356-1.926-.997-2.211-3.278-.285-2.281-.642-2.78-1.783-2.637-.784.142-2.852.427-4.635.641-3.067.428-3.352.285-5.135-2.067-1.212-1.568-3.851-3.35-7.274-4.989-4.136-1.996-5.491-2.994-5.848-4.419-.285-1.07-1.07-1.996-2.14-2.21-1.996-.499-10.982-9.836-10.982-11.404 0-.57.784-2.994 1.783-5.275.998-2.352 1.783-4.704 1.783-5.345 0-.571 1.283-1.711 2.781-2.495 2.496-1.212 2.924-1.853 3.566-5.061.428-2.067 1.569-4.633 2.567-5.773 1.64-1.996 1.712-2.138.713-5.417-1.783-5.845-1.426-7.698 2.425-12.83 1.498-1.924 2.211-2.281 4.778-2.281 2.354 0 3.067.285 3.352 1.355.285 1.283 4.35 4.347 5.634 4.347.784 0 5.563-4.347 6.347-5.773.428-.855.357-2.352-.214-4.419-.998-3.778-.143-8.91 1.712-10.05 1.925-1.212 2.638.071 3.351 6.557l.642 5.916 4.565 4.776c5.99 6.272 7.131 6.415 9.057 1.069 3.565-9.907 4.849-10.834 15.404-10.834 9.199.071 9.413.142 11.838 5.987 2.924 6.771 3.637 7.413 6.347 5.845l2.068-1.283 5.064 9.622 5.063 9.622 4.422-.427c3.209-.285 4.778-.071 5.776.641 1.213.927 1.141 1.212-1.497 6.629l-2.853 5.702 1.569 5.132c1.355 4.277 1.426 5.346.713 6.415-.856 1.069-1.283 1.14-4.207.356-1.783-.499-4.565-.855-6.205-.855-2.425 0-3.352-.499-6.347-3.421-1.925-1.854-5.563-4.491-8.13-5.845-4.35-2.281-4.778-2.352-7.488-1.568-1.64.499-2.924 1.354-2.924 1.853 0 .499.998 3.065 2.139 5.56 1.855 3.991 2.069 4.918 1.427 6.7-.499 1.14-.642 3.492-.428 5.345.499 3.635.642 3.493-3.923 4.419-1.497.357-2.068 1.212-3.494 5.845l-1.712 5.417 2.14 1.711c2.853 2.352 3.994 2.209 6.632-1.069 1.926-2.424 2.71-2.851 4.992-2.851 2.14 0 2.996.356 3.851 1.639 1.07 1.639.928 1.853-4.92 7.698-5.206 5.06-5.991 6.272-5.706 7.84.785 3.992-2.852 5.845-8.13 4.205z" fill="#26323C"/><path d="M365.284 340.503c-13.051-5.774-17.686-8.197-26.886-14.327-8.415-5.488-11.553-7.199-12.766-6.914-1.426.357-21.608.428-32.805.143-2.638-.072-5.063-.428-5.42-.784-.356-.357-2.638-4.491-5.063-9.124-3.637-6.771-4.279-8.553-3.495-9.123.571-.356 2.069-1.283 3.424-2.138l2.353-1.497-.428-4.918-.499-4.847 3.066-1.354c4.208-1.782 10.555-8.767 10.555-11.547 0-1.069.285-2.21.642-2.423 1.141-.713 4.493 2.637 5.848 5.844 1.711 4.063 1.711 6.771 0 8.34-1.355 1.211-1.569 1.211-5.064 0-3.494-1.283-3.565-1.283-6.774.285-1.783.855-3.424 2.067-3.709 2.708-.428 1.212.999 12.331 1.783 13.614.571.855 7.773 3.778 9.414 3.778.641 0 2.852-1.782 4.992-3.921l3.851-3.92h20.182c11.197 0 20.254.285 20.468.642.285.356-1.355 1.639-3.495 2.851-2.211 1.211-4.136 2.708-4.421 3.35-.428 1.14 4.207 6.415 6.561 7.341.927.357 2.852.071 5.277-.784 4.85-1.639 6.276-1.639 10.769.143 2.924 1.14 4.493 1.283 8.985.926l5.42-.427-.499 3.278c-.499 3.137-.428 3.35 1.498 4.134 3.423 1.426 6.918.998 10.269-1.211l3.067-2.067-.428-4.776c-.357-3.777-.143-5.06.713-5.916 1.141-1.211.999-1.211 12.124 5.132 1.711.998 3.922 3.136 5.277 5.275l2.282 3.563-1.497 2.067c-1.926 2.566-1.926 2.281.356 7.627.999 2.495 1.641 4.704 1.355 4.989-.285.285-1.497.072-2.781-.427-2.211-.856-2.353-.784-4.921 2.067-1.854 2.067-3.566 3.136-5.634 3.635-1.64.356-4.279 1.782-5.919 3.065-1.783 1.496-4.564 2.851-7.274 3.563-2.425.642-4.493 1.07-4.636 1.07-.142 0-7.417-3.208-16.117-6.985zm-220.437 1.924c-.499-.499-.855-1.14-.855-1.425 0-.357-1.355-3.493-2.996-6.985l-2.924-6.415h-2.781c-2.496 0-2.781-.214-2.353-1.426.285-.926-.143-2.423-1.07-3.92-1.569-2.566-2.71-2.922-6.418-1.853-2.782.784-7.703-.428-9.699-2.424-1.712-1.71-1.855-1.781-3.851-.712-1.141.57-2.211 1.069-2.425 1.069-.143 0-.499-1.853-.713-4.134-.286-2.21-1.141-6.273-1.997-8.91-1.854-5.559-1.712-5.773 3.423-6.557 2.282-.357 3.922-.071 6.632 1.069 3.78 1.639 4.422 2.637 5.492 8.696.428 2.494.57 2.637 4.136 3.065 1.997.213 4.778.356 6.133.213 2.211-.213 2.639-.641 4.35-4.134 1.07-2.209 1.783-4.205 1.569-4.49-.142-.285-2.282-1.639-4.849-2.994-3.352-1.924-4.707-3.136-5.278-4.775-1.141-3.35-.998-3.992 1.641-6.7 2.139-2.281 2.781-2.495 5.562-2.281 2.996.214 3.138.356 5.135 4.277 1.141 2.28 3.994 8.481 6.418 13.898l4.351 9.837 4.136.57c3.851.57 4.279.499 5.991-1.069l1.782-1.64 1.712 2.139c.927 1.14 2.71 3.421 3.851 5.06l2.14 2.994-2.568.855c-1.426.499-4.921 2.922-7.773 5.417-4.137 3.635-5.278 5.061-5.492 6.843-.142 1.853-.927 2.637-4.492 4.918-4.921 3.065-4.779 2.993-5.92 1.924z" fill="#26323C"/><path d="M186.852 326.604c-2.068-2.21-2.852-2.495-7.488-2.923l-5.206-.499-4.921-6.7c-2.71-3.635-5.348-6.7-5.776-6.7-.5 0-1.641.784-2.496 1.782-1.498 1.711-3.637 2.139-6.704 1.355-1.212-.357-2.853-3.279-6.989-12.688-2.995-6.7-5.42-12.616-5.42-13.114 0-.642 1.426-.856 4.85-.856 5.847 0 24.389-3.279 25.531-4.49.499-.499 1.355-4.205 1.996-8.34.642-4.134 1.427-7.697 1.712-8.054.356-.285 1.997-.926 3.78-1.425 2.995-.856 3.351-1.283 7.06-7.912 3.566-6.344 4.279-7.199 8.201-9.48 5.491-3.207 6.989-4.633 10.484-9.693 1.497-2.21 3.066-4.063 3.423-4.063.428 0 2.353 1.14 4.35 2.566 3.352 2.423 3.566 2.78 3.138 4.847-1.07 4.49-.071 6.842 2.924 6.842 1.925 0 1.997.357 3.209 8.838l.856 6.415-1.997 1.426c-4.208 2.993-7.346 6.201-11.411 11.547l-4.207 5.417 1.355 6.486c.713 3.564 1.426 7.056 1.64 7.769.285 1.069-.143 1.283-2.924 1.283-2.995 0-3.352.214-6.133 3.778-2.781 3.563-2.924 4.062-2.853 8.41.072 2.495.286 5.346.571 6.344.428 1.283.143 2.281-.998 3.635-.928 1.069-1.855 3.421-2.069 5.203-.428 2.637-.927 3.493-2.567 4.348-1.141.57-2.211 1.069-2.282 1.069-.143 0-1.355-1.14-2.639-2.423zm132.932 90.948c-7.274-2.922-10.626-3.207-19.041-1.639-5.135.927-5.848.927-10.341-.356-4.635-1.283-4.921-1.497-6.703-4.918l-1.783-3.564-5.349-.499c-7.417-.642-7.773-.499-7.773 3.778 0 5.06-1.498 5.488-10.84 3.136-7.631-1.854-8.273-1.782-11.197 1.354-.998.998-2.139 1.853-2.567 1.853-.856 0-3.21-7.056-3.21-9.622 0-.713 1.07-2.495 2.425-3.92 1.854-2.067 2.71-4.063 3.709-8.197l1.283-5.488 2.568.427c7.844 1.497 8.272 1.426 10.198-1.14 1.212-1.568 1.711-2.994 1.497-4.134-.285-1.497.642-2.851 5.777-7.841 3.352-3.35 6.062-6.343 6.062-6.628 0-.357-.856-1.711-1.926-3.065-1.783-2.139-2.353-2.424-5.348-2.424-2.996 0-3.495.214-5.706 2.923-2.21 2.637-2.638 2.851-3.993 2.138-1.855-.998-1.855-1.426-.214-6.13 1.141-3.35 1.497-3.635 4.421-4.348l3.138-.784-.214-4.276c-.142-2.281.143-5.132.571-6.273.642-1.71.428-2.708-1.427-6.628-1.711-3.635-1.996-4.847-1.283-5.275 1.64-.998 3.28-.641 7.131 1.64 5.92 3.492 7.774 4.918 8.487 6.771.499 1.425 1.07 1.711 3.78 1.711 1.711 0 5.206.641 7.702 1.425 2.496.713 4.564 1.354 4.635 1.426.072 0 .927-1.141 1.926-2.566l1.711-2.566-1.711-4.99-1.64-4.989 1.854-3.706c.998-1.996 2.567-4.776 3.494-6.201l1.64-2.638 13.123.143 13.122.071 10.982 7.199c7.774 5.061 13.835 8.411 20.61 11.262 5.278 2.281 10.912 4.704 12.481 5.345 10.34 4.633 9.128 4.42 14.619 2.923 3.352-.855 5.848-2.067 7.845-3.778 1.854-1.568 3.922-2.637 5.705-2.851 1.997-.285 3.352-1.069 5.064-2.922 3.28-3.778 6.775-3.208 3.851.641-1.498 2.067-1.284 3.778.784 5.56l1.783 1.568-1.997 2.851c-1.069 1.639-3.423 4.277-5.206 5.845-2.995 2.708-3.851 3.065-9.984 4.134-6.704 1.14-10.198 2.708-13.265 6.129-.641.713-3.423 1.996-6.061 2.78-2.71.784-6.847 2.78-9.2 4.419-3.923 2.709-4.422 2.923-5.064 1.782-1.141-1.996-2.21-1.497-6.989 3.279-3.851 3.92-4.492 4.989-4.778 7.626-.142 1.711-.356 3.137-.428 3.137-.142.071-2.139 1.639-4.564 3.492-4.207 3.208-4.493 3.635-7.702 11.69-5.135 12.615-6.989 16.179-8.629 16.322-.785.071-4.279-.998-7.845-2.424z" fill="#26323C"/><path d="M250.466 278.849c-4.493-1.854-5.919-3.137-9.913-8.696-4.065-5.702-7.131-14.184-8.629-24.02-1.141-7.128-1.426-8.054-2.781-8.197-1.07-.143-2.354.784-4.493 3.35-2.14 2.495-3.566 3.635-4.778 3.635-2.283 0-2.71-1.283-1.355-4.49.998-2.495.998-2.566-.927-4.206-1.07-.926-3.21-2.494-4.636-3.421-2.853-1.924-3.067-2.566-1.783-5.346.856-1.924 1.07-2.067 7.346-3.278 5.705-1.07 7.202-2.139 7.773-5.417 1.783-10.264 2.639-12.901 4.564-13.757 6.989-3.207 9.343-3.635 17.9-2.851 12.695 1.141 12.909 1.212 12.909 3.208 0 1.496-.357 1.782-2.14 1.782-1.212 0-2.353.427-2.567.997-.713 1.782 1.783 8.981 5.491 16.109 3.352 6.344 3.637 7.27 4.636 15.681.57 4.846 1.711 10.762 2.496 13.115 1.64 5.06 1.64 8.481.071 17.89l-1.212 7.128-4.279 1.14c-5.706 1.639-9.271 1.497-13.693-.356zm-107.544 75.41c-2.14-1.354-3.495-1.711-5.349-1.426-2.282.357-2.853 0-6.561-3.706l-4.136-4.063-2.996 1.212a214.097 214.097 0 00-5.277 2.067c-1.854.713-2.639.713-4.635-.285-1.355-.57-4.85-1.497-7.774-1.996-4.279-.713-5.848-1.283-7.63-2.993l-2.283-2.21 4.707-5.275 4.707-5.203-.856-2.779c-.428-1.426-.784-3.493-.784-4.491 0-1.568.356-1.853 2.71-2.138 1.426-.143 3.637-.713 4.849-1.283 1.997-.784 2.425-.784 3.78.57 1.925 1.711 6.846 2.637 10.911 1.925 3.423-.571 4.778.784 4.85 4.846 0 2.638.071 2.709 2.852 2.709h2.853l2.924 6.201c3.708 8.054 3.922 9.052 2.425 11.404-1.213 1.782-1.213 1.925.142 2.994.856.641 1.997 1.425 2.71 1.853.713.428 1.141 1.354.999 2.281l-.286 1.497-2.852-1.711z" fill="#26323C"/><path d="M80.663 353.404c-3.138-6.13-8.629-20.813-8.2-22.025.64-1.853 9.484-16.75 10.768-18.247.57-.641 2.068-1.211 3.28-1.211 2.996 0 4.778-1.355 7.488-5.631 2.211-3.421 4.85-5.061 7.916-5.061 1.712 0 4.137 6.486 4.707 12.616l.499 5.203h-1.782c-2.639 0-3.638 1.64-3.21 5.132.214 1.711.571 3.707.856 4.491.285.998-.499 2.352-2.852 4.989-8.701 9.408-9.485 10.549-10.27 14.897-.428 2.352-.784 4.348-.784 4.49 0 .57-4.707 3.065-5.777 3.065-.642 0-1.854-1.212-2.639-2.708zm43.86-44.192c-.5-.784-1.284-5.844-.999-5.844.214 0 1.498.498 2.995 1.069 3.352 1.425 4.921.926 4.493-1.426-.214-.998-.071-1.782.286-1.782.499 0 3.137 1.426 4.778 2.637.142.072-.286 1.497-.999 3.065l-1.283 2.851h-4.493c-2.425 0-4.636-.285-4.778-.57zm88.716 89.381c-4.421-1.426-4.849-1.782-8.415-6.843-3.067-4.348-4.493-5.702-7.845-7.412-3.922-1.996-4.35-2.067-10.911-1.568-4.778.356-7.417.855-9.128 1.853-1.355.784-2.639 1.283-2.782 1.14-.214-.214-.784-3.421-1.283-7.27-.785-5.275-1.355-7.27-2.568-8.624-1.783-1.854-2.852-2.068-4.992-.785-1.284.784-1.712.642-3.637-1.853-1.212-1.497-2.995-2.993-3.922-3.35-1.284-.499-1.641-1.14-1.641-2.993 0-3.136-1.069-4.063-4.778-4.063-2.995 0-3.066-.071-3.066-2.352 0-1.711-.571-2.78-2.282-4.206-2.283-1.853-2.354-1.924-.928-3.421.714-.855 3.281-2.708 5.706-4.063 5.919-3.563 6.775-4.419 6.775-6.699 0-1.497.998-2.852 4.493-5.916 2.496-2.139 5.348-4.277 6.275-4.633 1.141-.428 4.493-.428 8.487-.143 6.49.57 6.775.642 9.057 3.136l2.353 2.566-2.139 5.774c-1.141 3.207-2.14 6.201-2.14 6.628 0 1.212 10.84 12.616 11.981 12.616.5 0 1.213.784 1.569 1.711.428 1.211 2.425 2.637 6.205 4.561 3.637 1.854 6.347 3.778 7.845 5.631l2.282 2.851 3.637-.712c4.065-.784 4.992-.286 4.992 2.851 0 1.924 2.425 2.708 6.347 2.067 2.567-.428 2.853-.285 3.637 1.782.499 1.14 1.712 2.637 2.639 3.278 1.64 1.069 2.068 3.208 1.212 5.489-.214.57-2.353 1.924-4.635 2.993-4.351 1.925-5.135 3.35-2.996 4.918.999.713 1.141 1.283.5 2.923-.642 1.853-.928 1.995-3.709 1.853-1.854-.143-3.566.142-4.564.855-1.926 1.354-1.926 1.354-7.631-.57zM933.17 558.395c-3.994-3.636-11.125-10.122-15.832-14.47-16.117-14.825-15.547-14.469-20.325-14.968-3.494-.427-4.636-.285-6.205.713-1.568 1.069-2.852 1.141-8.486.713-7.203-.499-8.843 0-15.832 4.775-3.709 2.566-4.992 2.353-9.414-1.568l-3.209-2.779 1.284-2.139c1.711-2.851 1.569-3.849-.785-5.631-1.497-1.069-2.353-2.708-3.28-5.987-2.282-8.268-2.639-9.123-3.923-9.123-.713 0-1.996.784-2.924 1.782-.927.926-1.854 1.782-2.139 1.782-.214 0-1.426-1.497-2.71-3.208-1.212-1.782-2.639-3.207-3.138-3.207-.428 0-1.712.855-2.853 1.853-2.496 2.423-4.207 1.426-3.637-2.138.357-2.139.143-2.424-3.28-4.277-1.997-1.069-3.637-2.352-3.637-2.78 0-.499 1.64-1.995 3.637-3.35 3.423-2.28 3.779-2.352 6.561-1.71 4.635 1.211 13.764.57 19.112-1.283l4.779-1.568 3.494 2.281c4.279 2.708 5.277 2.779 10.626.427 3.281-1.497 4.921-1.782 7.488-1.497 3.138.357 3.709.143 9.271-3.563 3.637-2.424 7.988-4.633 10.911-5.489 3.138-.998 5.207-2.067 5.706-2.922 2.781-5.132 4.279-6.771 6.632-7.199 1.498-.285 4.85-2.423 8.487-5.274 7.916-6.273 9.128-6.843 11.553-5.988 2.781.927 2.924 4.42.285 11.048-1.925 4.918-4.421 16.536-4.421 20.813 0 2.281.427 2.281 6.275.499 2.496-.784 4.921-1.426 5.42-1.426.499 0 1.64 1.283 2.496 2.851.856 1.568 1.926 2.851 2.354 2.851.428 0 3.779-2.28 7.488-4.989 6.133-4.704 6.632-5.203 6.632-7.484 0-2.21.214-2.495 1.712-2.495 1.212 0 2.781-1.14 4.992-3.706l3.209-3.635 2.211 4.918c1.284 2.709 2.71 5.916 3.28 7.128l.927 2.28-5.633 2.281c-3.138 1.212-5.706 2.638-5.706 3.065 0 .428.999 1.782 2.211 3.065l2.211 2.281-1.783 1.568c-1.141.998-1.997 2.709-2.282 4.49-.285 1.64-1.498 4.918-2.639 7.342-1.997 4.205-2.139 4.847-1.854 12.117.214 7.056.428 8.054 2.211 10.763 1.854 2.922 2.068 3.064 5.705 3.064 3.566 0 3.922.143 7.488 3.778 2.068 2.067 3.709 4.205 3.709 4.704 0 .571-.642 3.493-1.498 6.558-1.141 4.205-1.854 5.702-2.924 5.987-.784.285-4.422.071-7.987-.428-6.133-.784-6.704-.784-10.056.642-3.28 1.425-12.837 4.419-14.12 4.419-.286 0-3.78-2.994-7.845-6.557zm55.056 13.827c-.642-.285-2.853-2.566-4.992-5.06-6.847-8.055-6.419-7.128-5.349-11.761.571-2.21 1.07-4.205 1.212-4.277 1.141-.926 14.905-8.268 15.547-8.268.428 0 1.926.499 3.281 1.212 2.495 1.14 2.855 1.141 8.985-.428 3.49-.926 6.56-1.568 6.78-1.354.14.214-1.64 3.279-4 6.914-2.35 3.564-5.2 8.339-6.35 10.549-2.35 4.704-9.552 12.046-12.19 12.616-.999.142-2.282.142-2.924-.143zm128.584-241.84c-26.1-13.187-34.38-17.962-34.38-19.886 0-.214 2.43-3.065 5.42-6.273l5.5-5.916-.93-4.276c-.5-2.281-1.29-4.776-1.78-5.417-.79-1.069-1.07-1.069-3.64-.072-2.64 1.07-3 1.07-4.78-.071-1.07-.641-1.93-1.354-1.93-1.639 0-.285 2.43-2.637 5.35-5.275 5.49-4.918 6.06-6.058 4.35-8.553-2.78-3.991-8.27-14.825-7.7-15.182 6.85-4.633 10.2-7.769 11.27-10.549.64-1.71 1.35-3.065 1.5-3.065.14 0 1.85.785 3.78 1.782 2.64 1.283 4.63 1.782 7.84 1.782 4.99 0 5.99 1.069 4.07 4.419-1.57 2.709-1.5 3.636.28 9.124 1.78 5.346 2.85 6.771 5.49 7.413 8.63 2.067 9.27 2.423 9.77 5.417.43 2.494.22 3.136-1.71 5.345-1.92 2.21-2.21 3.065-2.21 6.629 0 2.21.21 4.704.43 5.488.21.784 2.92 3.065 6.06 5.132 6.28 4.205 5.99 3.493 5.71 13.115l-.22 6.201 2.78 3.065c5.71 6.201 8.7 11.547 10.2 18.033 1.71 7.413 1.78 8.268.29 8.268-.57 0-14.48-6.771-30.81-15.039z" fill="#26323C"/><path d="M1076.66 304.579c-3.78-4.205-4.07-4.846-5.49-11.19-1.5-6.415-1.72-6.914-4.85-9.694l-3.28-2.922 1.21-5.132c1.5-6.13 2.07-3.92-7.63-31.433l-7.21-20.313-.49-9.124c-.65-10.62-.93-11.333-7.64-16.108-2.56-1.782-5.42-3.921-6.41-4.705l-1.64-1.425 1.78-3.421c2.57-4.776 2-6.201-2.5-6.201h-3.49l-3.28 6.058c-2.36 4.348-3.21 6.558-2.93 7.698.29.855 2.57 3.279 5.07 5.346 2.85 2.281 4.63 4.348 4.63 5.132 0 .784-.21 1.425-.5 1.425-.28 0-2.78-2.209-5.56-4.918-5.42-5.274-8.27-6.771-10.91-5.56-2 .856-2.35.499-4.42-4.704-1.43-3.777-1.78-4.063-3.85-4.063-3-.071-3.43-.427-6.14-5.203-1.993-3.635-2.564-4.134-5.06-4.561-2.424-.357-2.781-.642-2.781-2.352 0-2.353 2.282-5.489 8.061-10.977 2.42-2.352 5.42-5.916 6.56-7.84 1.78-2.994 2.49-3.636 4.49-3.849 1.78-.143 2.71-.713 3.57-2.281 1-1.711 2.07-2.21 5.99-3.136 7.13-1.64 7.06-1.64 10.12 3.92 1.5 2.78 3.14 5.203 3.71 5.417.57.214 2.57-.927 4.42-2.495 3.29-2.708 3.78-2.922 8.71-3.065l5.2-.214 1.28-4.633c.72-2.565 1.36-5.63 1.36-6.842 0-1.212.78-4.205 1.78-6.7s1.79-5.631 1.79-6.914v-2.352h4.13c2.21 0 4.42.214 4.85.499.43.285 2.93 8.054 5.56 17.32 3.14 11.119 5.42 17.891 6.85 20.171 1.21 1.854 2.14 3.707 2.14 3.992 0 .285-2.85 1.425-6.35 2.423-3.49.998-6.63 2.281-6.99 2.709-.42.499-1.07 4.49-1.49 8.909-.65 6.7-.65 8.34.21 10.478 1.64 3.92 1.36 4.205-2.21 2.281-6.28-3.493-6.99-2.281-3.5 5.916 1.36 3.207 2.5 6.201 2.5 6.557 0 .356-1.28 2.281-2.85 4.277-1.57 1.995-2.85 3.849-2.85 4.134 0 1.639 17.4 28.296 19.04 29.152.71.356 2.92.427 4.85.214l3.56-.428-.14-2.637c-.14-2.139.14-2.78 1.28-3.136 1.5-.428 3.14.57 4.28 2.637.43.855.22 2.352-.78 5.06-1.21 3.208-2.21 4.277-6.78 7.627-2.92 2.138-5.35 4.277-5.35 4.775 0 .428 2.14 4.633 4.71 9.266l4.71 8.411-2 1.711c-5.49 4.704-9.56 8.624-9.56 9.337 0 .427 1.29 1.568 2.93 2.637 2.85 1.925 2.85 1.925 5.42.713 2.99-1.426 3.28-1.212 4.56 3.991l.79 3.422-5.21 5.488c-2.85 3.065-5.35 5.631-5.56 5.702-.22.071-2.21-1.853-4.42-4.277zm-50.85 259.589c-.86-2.067-1.07-3.92-.71-6.415.42-3.279.28-3.706-3.21-9.123-2-3.137-3.93-6.558-4.35-7.556-.36-.998-.93-1.782-1.22-1.782-.28 0-3.56.927-7.27 2.139-7.92 2.494-7.92 2.494-11.553.641l-2.853-1.425-6.989 3.92c-3.922 2.209-7.274 3.991-7.488 3.991-.214 0-.428-.499-.428-1.14 0-.642-2.068-3.208-4.635-5.702-4.422-4.348-4.85-4.562-8.13-4.562-3.138 0-3.495-.214-4.85-2.708-1.07-1.925-1.569-4.348-1.783-9.053-.285-6.058-.214-6.699 2.068-11.618 1.284-2.851 2.354-5.987 2.354-6.985 0-.926.998-2.779 2.211-4.134 1.783-2.067 1.996-2.779 1.426-3.92-.428-.784-1.355-1.782-2.068-2.138-1.64-.998-.713-1.782 4.493-3.92 2.353-.927 4.564-2.139 4.849-2.709.642-1.069-6.775-17.676-7.916-17.676-.356 0-2.139 1.71-3.994 3.849-2.781 3.207-3.779 3.92-5.99 4.134-2.639.213-2.639.213-2.425 3.136.285 2.922.214 2.993-5.135 6.985-2.995 2.209-5.705 3.991-6.061 3.991-.357 0-1.355-1.211-2.14-2.637-1.711-2.851-2.425-2.851-9.485-.641-3.138.997-3.423.926-3.423-.143 0-3.35 2.353-13.97 4.422-19.601 1.854-5.274 2.139-6.771 1.569-8.91-.571-2.28-1.07-2.779-3.638-3.706l-3.066-1.069-5.349 3.778c-2.924 1.995-5.634 3.706-5.99 3.706-.785 0-2.924-6.985-2.924-9.622 0-1.069.356-2.495.713-3.279 1.426-2.637.071-4.847-4.778-7.627L905.5 442l.499-2.851c.784-4.704.784-4.847-2.068-6.7-2.282-1.568-2.568-1.924-1.641-2.78.785-.855.927-2.993.642-11.119l-.356-10.05 7.06-3.635 6.989-3.564-.143-4.276-.142-4.348 4.421-1.354 4.422-1.355.356-5.345.357-5.346 2.496-.285c4.921-.428 4.849-.57-3.78-11.689-4.564-5.845-5.491-7.484-6.133-10.977-.998-5.274-1.07-4.776 1.426-7.698 2.496-2.78 2.425-3.564-.784-8.909-1.07-1.854-2.354-4.491-2.924-5.988-.856-2.28-.785-2.708.285-3.849.999-.926 2.282-1.211 5.705-.997 2.425.071 5.848-.286 7.631-.784 2.71-.856 3.495-1.497 4.992-4.348l1.783-3.279h8.344l-.499-3.778-.428-3.706 3.494-2.709c3.495-2.637 3.638-2.708 6.918-1.924 5.135 1.14 8.629 3.279 10.983 6.629l2.139 3.136-2.068 2.851-2.068 2.78 1.783 2.637c1.997 2.922 3.423 3.207 5.99 1.212 1.569-1.212 2.924-1.426 10.555-1.426 7.06 0 8.701.143 8.701.998 0 .57-1.569 1.497-3.709 2.21-4.921 1.639-5.634 2.28-5.42 4.846.214 1.996-.071 2.281-2.853 3.279-1.711.642-3.494 1.782-3.922 2.566-.428.784-3.708 4.918-7.274 9.266a719.365 719.365 0 00-7.417 9.052c-.784 1.069-.713 1.853.713 5.203 1.783 4.277 1.712 5.203-1.141 12.545l-1.284 3.279 2.639 4.276 2.71 4.348-2.211 8.838-2.21 8.91 1.141 9.978 1.141 10.05-3.281 15.396c-1.854 8.482-3.138 15.752-2.924 16.109.286.356 1.854.712 3.495.712 2.496 0 4.065-.641 7.773-3.207 2.639-1.782 5.063-3.208 5.42-3.208.428 0 2.068 1.569 3.78 3.564 3.566 4.134 5.776 4.705 5.705 1.426 0-.214-.214-1.069-.428-1.925-.356-1.211-.071-1.782 1.07-2.423 1.925-.998 2.924-.071 4.136 4.134.571 2.138 1.213 3.065 2.14 3.065 1.426 0 7.916-6.558 7.916-7.912 0-.499-.999-2.637-2.282-4.775l-2.211-3.921 2.995-2.851c2.853-2.637 3.209-2.779 6.346-2.352 1.86.214 6.35.642 9.99.856 7.06.427 6.7.213 7.41 4.846.14.856 2.43 2.566 6.28 4.705l6.06 3.35 1.21 5.63c1.86 8.91 6.06 17.178 12.77 24.947 3.21 3.707 8.06 10.478 10.77 15.111l5.06 8.268.5 9.979c.28 5.559.21 10.335-.07 10.691-.79.855-2.78-.855-2.78-2.495 0-1.211-7.21-7.056-8.63-7.056-1.14 0-7.78 9.622-7.56 10.977.07.855 1.35 2.138 2.92 2.993 2.21 1.212 3.21 1.426 4.99.927 1.22-.357 2.29-.642 2.43-.642.07 0 .14 1.925.14 4.277v4.276h-2.21c-1.14 0-2.78.285-3.57.713-1.35.784-1.35.927.86 4.776l2.28 3.991-2.92 2.709c-2.93 2.708-3 2.779-8.63 2.779h-5.71l-2.56 3.921c-2.64 4.205-2.93 5.274-1.71 6.557.85.784.35 2.352-.72 2.352-.35 0-1.14-1.354-1.78-2.922z" fill="#26323C"/><path d="M966.76 325.107c-.642-1.497-.5-2.138 1.212-4.348l1.925-2.566-2.567-3.849c-2.71-4.062-6.846-6.771-11.838-7.769a387.738 387.738 0 01-3.637-.784c-.642-.214-2.639.784-4.422 2.21-1.854 1.425-3.708 2.352-4.065 2.138-.356-.285-.713-1.568-.713-2.994 0-2.138-.713-3.278-4.921-7.626-6.276-6.486-8.629-11.048-8.629-16.75v-4.205l4.707-2.424c2.638-1.283 4.921-2.78 5.134-3.278.143-.571-.998-2.353-2.638-4.063l-2.995-2.994 4.136-3.706c2.995-2.637 4.564-3.564 5.563-3.279.784.214 2.282.57 3.351.784l1.926.428-.428-3.635c-.357-3.422-.285-3.778 2.425-6.985 1.569-1.925 3.066-3.849 3.351-4.348.286-.499-1.212-2.637-3.85-5.56l-4.422-4.704.499-3.421c.428-3.35.428-3.422-2.139-4.99-2.068-1.283-2.496-1.924-2.14-3.136 1.284-4.134 1.213-4.49-.998-6.13-1.213-.855-2.211-1.781-2.211-2.138 0-.285 2.139-1.924 4.707-3.635 2.567-1.711 4.992-3.778 5.348-4.704.428-1.212 1.141-1.64 2.71-1.64 2.568 0 2.568 0 3.851-5.63.999-4.134.928-4.491-.356-6.13-1.284-1.711-1.284-1.711.071-2.495.999-.499 1.569-.427 2.354.499.499.642 2.139 1.996 3.637 3.065l2.638 1.996 6.49-2.424c3.994-1.496 7.56-3.35 9.2-4.846 2.068-1.854 3.494-2.495 6.561-2.923 2.496-.285 4.849-1.14 6.347-2.209 3.78-2.78 5.277-2.352 8.346 2.566 2.28 3.706 2.92 4.276 4.85 4.276 2.64 0 3.14.57 4.85 5.061.64 1.782 1.57 3.777 2.06 4.49.93 1.212 1.07 1.212 3.29.071 2.13-1.14 2.42-1.069 4.56.286 1.28.784 4.21 3.35 6.56 5.702 2.35 2.352 4.64 4.348 5.06 4.348.65 0 4.57 16.892 4.57 19.529 0 .642-3.35.428-5.49-.356-1.07-.428-3.35-2.352-5.07-4.277-1.71-1.924-3.7-3.492-4.49-3.492-.93 0-3.07 2.566-6.92 8.339-3.06 4.633-5.77 8.91-5.99 9.551-.5 1.212.29 4.134 6.21 23.379 3.85 12.473 6.13 17.391 9.27 19.957 1 .855 1.42.784 3.21-.57 2.28-1.639 3.56-1.925 3.56-.784 0 .428-1.57 2.566-3.42 4.847-3 3.635-3.64 5.06-5.42 11.903-2.42 9.195-2.92 10.335-4.56 10.335-2.5-.071-2.93-.927-2.07-4.134.92-3.35.28-4.419-2.71-4.419-1.86 0-17.475 9.123-17.974 10.549-.285.57.143 2.708.856 4.775s1.07 4.063.784 4.491c-.214.427-1.569 1.069-2.924 1.568-1.355.427-2.496 1.069-2.496 1.425 0 .428-3.851.713-8.7.713-7.56 0-9.057.214-10.911 1.425-2.71 1.782-3.067 1.782-4.065-.356z" fill="#26323C"/><path d="M959.557 191.321c-3.138-2.637-3.566-2.851-5.278-2.067-1.711.784-2.068.57-4.635-1.853l-2.71-2.708-5.705.213-5.777.214-2.781-3.065c-2.71-2.922-2.853-3.35-2.853-7.626 0-4.134.214-4.776 2.496-7.556 1.854-2.209 2.496-3.706 2.496-5.63 0-1.854.642-3.422 2.282-5.417 2.211-2.78 2.211-2.78.856-4.277-2.567-2.851-7.773-6.13-12.409-7.769-2.567-.927-4.921-1.925-5.277-2.281-.999-.855 1.141-4.918 6.989-13.043 6.133-8.411 6.846-9.694 6.846-12.046 0-.998.428-2.067.856-2.352.499-.285 4.421-.713 8.7-.998 4.921-.357 8.059-.855 8.63-1.497 1.212-1.283 1.854-10.264.784-11.547-.499-.713-2.567-1.14-6.133-1.283-4.279-.214-5.777-.57-7.631-1.995-1.284-.927-2.353-2.21-2.353-2.709 0-.998 7.844-15.324 12.337-22.452 2.211-3.564 10.484-11.262 20.539-19.03 9.913-7.699 34.444-24.235 35.944-24.235.78 0 3.21.642 5.35 1.426 2.14.784 4.56 1.425 5.35 1.354 1.92 0 9.2-5.132 9.55-6.7.36-1.782-.92-2.352-6.84-2.922-5.28-.5-6.35-1.283-4.14-3.136.57-.5 1.71-2.994 2.5-5.631 1.42-4.704 1.42-4.776 7.27-8.553 3.14-2.139 6.28-3.992 6.92-4.134.64-.143 2.28.712 3.64 1.853l2.49 2.067-1.28 4.847c-2.14 8.339-2.5 7.982 10.55 10.263 4.64.784 8.92 1.782 9.42 2.21 2.35 1.996 0 7.056-3.28 7.056-2.5 0-3.43.784-7.21 5.916-2.85 3.92-3.14 4.206-5.42 3.85-1.99-.357-2.92 0-5.92 2.422-3.7 2.923-3.99 3.422-4.7 8.126-.93 5.702-.5 5.346-6.99 4.847-7.21-.5-7.92 0-7.21 5.417.29 1.924.86 4.063 1.29 4.633.5.712 3.42 1.497 7.84 2.138 3.85.57 7.35 1.283 7.63 1.64.36.356 1.29 3.136 2.07 6.272l1.43 5.63-3.14 4.633c-3.92 5.631-3.57 6.487 2.71 6.487 3.85 0 4.85-.357 8.06-2.495 4.14-2.78 4.56-2.851 10.2-1.71 3.49.712 4.42.64 8.27-.713 5.71-1.996 7.49-1.925 9.84.498l2 2.068-5.35 5.702-5.35 5.702 2.78 11.261c1.57 6.201 2.71 11.69 2.5 12.189-.29.712-1.86.998-5.42.998h-4.99v3.207c0 1.853-.79 5.061-1.79 7.484-.99 2.281-1.78 5.274-1.78 6.557 0 1.283-.43 3.921-.93 5.916l-.92 3.564-5 .357c-4.42.285-5.34.641-7.7 2.637-1.42 1.283-2.99 2.352-3.49 2.352-.43-.071-2.07-2.281-3.57-4.989-2.99-5.703-3.14-5.703-10.77-3.921-6.2 1.426-6.56 1.568-7.41 3.493-.5 1.212-1.57 1.853-3.5 2.138-2.42.428-2.99.998-5.49 5.132-1.5 2.566-4.49 6.13-6.56 7.912-5.848 4.989-7.417 7.626-7.417 12.473s-1.213 5.987-7.203 6.7c-2.995.357-4.35.927-6.632 3.065-2.496 2.21-11.839 6.415-14.335 6.415-.356 0-2.282-1.354-4.136-2.994zM933.883 43.28c-2.354-2.566-2.639-3.278-2.639-6.77 0-3.35.214-3.921 1.64-4.349.856-.285 2.425-1.069 3.495-1.853.998-.713 2.211-1.283 2.638-1.283 1.855 0 .143 16.251-1.782 16.893-.428.142-1.926-1.07-3.352-2.638zm95.987 605.208c-.64-.428-.14-1.996 1.93-5.916 1.57-2.922 2.85-5.702 2.85-6.201 0-.499-2.07-4.205-4.63-8.268-3.21-5.203-5.78-8.268-8.56-10.478-2.14-1.71-3.92-3.635-3.92-4.276 0-1.426 2.14-7.912 2.99-8.981.36-.428 2.78-1.14 5.42-1.639 5.71-.927 8.7-1.996 8.7-3.137 0-.427-.43-2.067-1-3.635-.57-1.568-1.21-6.272-1.49-10.335-.36-5.631-.93-8.482-2.22-11.333-1.78-3.991-2.13-5.773-1.14-5.773.36 0 1.14-.428 1.86-.998 1.28-.855 1.28-1.069.14-2.708-1.07-1.711-1.07-1.925.71-5.132l1.86-3.279h10.98l3.92-3.493 3.85-3.492-1.92-3.992-1.93-3.92 2.64-.214c2.07-.213 2.71-.57 3.07-1.995.78-2.78.71-9.836-.07-10.335-.36-.286-1.86-.143-3.28.285-2 .57-3.07.427-4.64-.357-1.14-.57-2.07-1.283-2.07-1.639 0-.285 1.29-2.423 2.93-4.633l2.92-4.063 3.28 2.352c2.35 1.711 3.42 2.994 3.57 4.348.21 1.426.85 2.21 2.56 2.923 1.93.784 2.43 1.425 2.79 3.706.28 1.497 1.14 5.488 1.92 8.838 1.43 5.488 1.57 8.625 1.93 35.638l.35 29.58-4.56 9.979-4.57 9.907-8.77 2.637c-4.77 1.497-9.13 2.994-9.62 3.422-.57.427-1.07 2.922-1.29 5.702-.21 2.708-1 6.343-1.71 8.197-1.07 2.637-1.71 3.278-3.14 3.278-1-.071-2.14-.285-2.64-.57z" fill="#26323C"/><path d="M815 492.82c-4.992-3.777-5.491-4.49-7.773-10.62-1.355-3.421-3.923-7.128-13.55-19.173l-1.926-2.424-4.493 1.925-4.493 1.924-4.492-4.348-4.565-4.347-5.206.427c-2.852.285-5.705.642-6.347.855-.57.143-2.924 4.063-5.134 8.625-3.067 6.344-4.208 9.48-4.493 12.83-.357 3.065-.927 4.846-1.855 5.702-1.355 1.211-1.497 1.14-3.351-1.212-1.355-1.639-2.354-2.281-3.138-1.924-2.211.784-12.267 7.769-14.834 10.263l-2.567 2.424-2.211-1.925c-2.71-2.209-2.781-2.779-1.141-18.959.642-6.272.927-11.832.784-12.331-.214-.499-1.426-1.14-2.638-1.426-1.569-.356-2.996-1.639-5.064-4.419-2.567-3.492-2.852-4.276-2.496-6.7.214-1.425.642-3.207.856-3.777.285-.784-.499-1.711-2.853-3.136-1.996-1.212-3.209-2.495-3.28-3.279 0-1.497-2.71-6.486-5.491-10.264-1.213-1.711-2.496-2.423-4.565-2.78-2.638-.427-2.781-.499-1.64-1.71.927-1.069.999-1.711.357-3.707-1.498-4.419-2.282-4.704-12.908-4.989l-9.628-.143-.214-3.421c-.143-2.209.285-4.419 1.284-6.629.784-1.853 1.426-3.991 1.426-4.704 0-.784-1.498-3.492-3.281-5.987-2.638-3.706-3.351-5.417-3.851-9.123-.784-5.204-1.283-6.843-2.21-6.843-1.641 0-1.284-2.281.855-5.203l2.283-3.279-2.639-13.4-2.568-13.4-3.637-3.635-3.637-3.706 4.065-4.063c3.851-3.849 4.279-4.063 6.847-3.778 3.779.571 4.564-.712 5.562-8.695.499-3.778 1.07-7.342 1.284-8.055.143-.712 2.425-3.635 4.921-6.414 2.496-2.851 4.564-5.703 4.564-6.344 0-1.996-10.983-17.89-14.263-20.741-2.924-2.495-3.209-3.065-4.636-9.623-.856-3.777-1.426-7.412-1.283-7.983.285-1.14 4.635-4.276 5.919-4.276.356 0 1.355 1.283 2.139 2.851 1.926 3.777 3.566 3.706 5.563-.357 1.925-3.991 3.423-4.918 10.768-6.771 5.991-1.425 7.203-1.425 7.203.285 0 1.497 4.208 4.705 6.134 4.705.927 0 5.491-1.569 10.126-3.493 4.565-1.924 9.057-3.706 9.913-3.92 2.354-.784 2.496-2.281.571-6.629-2.068-4.562-2.14-5.845-.785-7.769.856-1.14 1.783-1.283 6.419-1.14 5.206.213 5.562.142 7.987-1.996 1.355-1.141 2.781-2.138 3.067-2.138.356 0 3.922 2.922 7.987 6.557 5.634 5.132 6.989 6.629 5.919 6.842-1.498.286-3.138 1.426-3.138 2.281 0 .285 2.496 2.352 5.492 4.633 4.849 3.635 6.774 4.562 15.118 7.27 12.766 4.063 12.837 3.992 9.129-7.127-1.426-4.419-2.639-8.625-2.639-9.266 0-.998.927-1.141 6.633-.998l6.561.143 1.426-4.134c.784-2.21 1.854-4.206 2.425-4.42.57-.213 2.995-.641 5.348-.855 5.634-.57 6.989-1.283 6.49-3.279-.357-1.211.357-2.28 2.853-4.704 1.783-1.71 3.209-3.35 3.209-3.706 0-.357-2.211-2.352-4.992-4.348-5.135-3.706-5.42-4.134-5.919-10.05-.357-3.992-.072-4.419 5.776-7.698 12.837-7.27 21.181-12.473 25.46-16.037 4.35-3.564 5.134-3.92 7.773-3.706 3.138.213 3.067.071 2.068 4.918-.214 1.14 0 1.995.642 2.209.999.357 23.962-4.49 25.389-5.417.499-.285 3.565-5.916 6.917-12.473l6.062-11.975 5.705-2.993c5.634-2.923 5.777-2.923 9.77-2.21 3.067.57 4.493 1.283 5.706 2.709.856 1.069 1.64 2.209 1.64 2.494 0 .214.642.642 1.426.927 2.14.641 9.842-4.847 11.126-7.983 1.212-2.78 1.069-2.78 8.343.143 4.279 1.71 9.771 5.63 9.771 6.842 0 .428-.642 1.568-1.427 2.566-.784.998-1.426 2.78-1.426 3.92 0 2.495-.927 4.348-3.637 7.556-1.854 2.067-2.068 2.779-2.068 7.412 0 4.348.285 5.489 1.426 6.486.785.713 1.569 1.854 1.783 2.566.713 2.281 5.491 3.778 10.555 3.208l4.564-.499 3.922 4.348 3.994 4.419-.856 3.706c-.784 3.422-.998 3.707-3.28 4.063-1.854.285-2.496.784-2.853 2.067-.285 1.212-2.211 2.922-5.848 5.346-3.066 1.995-5.491 4.063-5.491 4.704-.071.57 1.07 1.782 2.496 2.708 2.068 1.355 2.496 1.925 2.068 3.208-1.355 4.348-1.284 4.633 1.355 6.272 2.496 1.64 2.639 1.782 2.211 4.918-.428 3.208-.357 3.35 3.494 7.484 2.211 2.352 3.994 4.633 3.994 5.061 0 .428-1.284 2.281-2.924 4.134-2.496 2.78-2.853 3.635-2.639 5.845.286 2.494.286 2.494-2.068 2.067-2.211-.428-2.852-.072-7.345 3.92-2.782 2.423-4.992 4.775-4.992 5.274 0 .428 1.141 1.925 2.496 3.279 1.426 1.354 2.424 2.709 2.282 3.065-.072.285-2.068 1.639-4.422 2.851l-4.279 2.281-.214 4.633c-.285 6.557 2.496 12.402 8.701 18.318l4.493 4.348.998 5.916c1.426 8.481 1.569 8.125-2.496 8.125-3.494 0-3.566 0-5.206 3.279-2.068 4.134-4.493 5.132-12.266 4.989-5.278-.142-5.492-.071-6.704 1.925-.642 1.211-1.212 2.566-1.212 3.136 0 .57 1.497 3.777 3.28 7.199l3.209 6.201-2.21 2.78-2.282 2.779 1.141 5.346c.998 5.061 1.497 5.916 6.846 12.687 5.848 7.413 6.133 8.411 2.425 8.482-1.641 0-2.425 2.495-2.425 8.197v2.851l-4.422 1.425-4.493 1.426.214 4.277.214 4.276-6.989 3.706-6.988 3.636.285 10.335c.214 9.907.142 10.335-1.284 11.119-2.282 1.211-1.783 2.637 1.569 4.49 3.138 1.782 3.138 1.853 2.353 6.771l-.499 2.923 4.636 2.708c2.567 1.497 4.849 3.136 5.063 3.707.214.57 0 2.138-.499 3.492-.785 2.067-.642 3.279.713 8.553 1.783 6.985 1.64 7.484-3.066 8.696-2.71.642-3.424 1.283-5.706 4.918-2.424 3.92-2.781 4.277-6.632 5.132-2.639.641-6.133 2.423-10.27 5.203-5.919 3.992-6.489 4.205-9.413 3.707-2.425-.357-3.923-.072-7.203 1.354-5.206 2.352-5.919 2.281-10.341-.428l-3.637-2.281-5.919 1.925c-6.419 2.067-13.194 2.494-18.471 1.069-2.995-.784-3.138-.784-7.631 2.495-2.496 1.853-4.706 3.278-4.92 3.278-.214 0-2.496-1.639-5.064-3.635zm-23.819-304.065c-.714-4.633-.571-5.203 2.139-6.272 2.853-1.212 8.915-1.141 9.342.142.286.784-6.347 6.273-9.556 7.983-1.284.713-1.497.499-1.925-1.853zm-28.17-12.687c-1.783-.57-3.494-1.283-3.851-1.71-.713-.713-2.567-9.124-2.639-11.975 0-1.568.143-1.639 6.276-1.425l6.205.285-.214-2.139c-.072-1.211-.214-2.993-.357-3.92-.071-1.354.214-1.782 1.284-1.782.998 0 1.569.713 1.997 2.709.642 2.566 1.069 2.993 5.562 4.989l4.85 2.281-3.566 4.633c-7.56 9.765-8.558 10.264-15.547 8.054zm15.975-17.89c-5.491-2.994-5.206-6.843.57-7.769 2.282-.357 2.496-.214 3.281 1.924.856 2.637 1.07 7.84.285 7.769-.356 0-2.139-.855-4.136-1.924zm11.909-10.264c-1.925-1.996-.784-3.136 6.633-6.843 9.627-4.775 9.984-4.775 9.342-.142-.285 1.924-.642 3.991-.856 4.49-.214.57-2.852 1.497-5.848 2.138-6.561 1.426-8.13 1.497-9.271.357zm309.725 369.497c-1.14-.642-2.71-1.64-3.5-2.281-2.71-2.352-9.62-12.046-12.9-18.104-2.93-5.417-3.71-6.415-6.35-7.556-2.5-1.069-5.42-4.205-15.83-16.892l-12.77-15.467-5.77-2.709c-7.21-3.278-10.63-6.343-15.2-13.471-3.85-5.987-4.35-8.054-2.42-10.121.93-1.069 1.07-1.925.5-4.704-.64-3.422-.93-3.707-6.35-6.059-2.42-.998-2.78-2.495-.85-3.635 1.07-.713 1.92-.071 5.84 3.992 2.5 2.637 7.14 7.056 10.35 9.836 3.63 3.207 6.13 6.058 6.84 7.698.93 2.423 2.28 3.35 14.05 9.836 22.18 12.33 28.67 16.037 29.31 16.678.43.357-1.21 1.497-4.06 2.78-2.64 1.212-5 2.637-5.21 3.208-.21.57 1.28 4.846 3.28 9.479 2.07 4.633 4.49 10.193 5.49 12.402 2.07 4.705 2.64 4.99 17.47 9.908 9.2 2.993 13.77 5.702 9.42 5.631-1.14 0-3.85-.286-5.99-.642-2.86-.428-4.21-.356-4.85.285-1 .927-1.07.713 2.42 8.767 1.22 2.709.5 2.994-2.92 1.141zM534.159 676.286c-1.925-.214-2.781-.927-4.421-3.564-1.213-1.782-2.282-3.849-2.496-4.491-.571-1.781-2.068-2.138-4.279-.997-1.997 1.069-7.916 1.283-11.054.427-1.854-.499-11.625-13.471-10.983-14.54.214-.285 1.141-.499 2.068-.499 1.427 0 1.926-.57 2.639-2.922.713-2.495.713-3.065-.214-3.564-3.922-2.281-3.851-2.352 2.425-4.419 5.848-1.925 6.133-2.139 8.986-6.201 3.137-4.491 3.637-4.705 8.058-3.635 3.138.712 3.709.213 4.493-3.849.927-5.346.999-5.417 7.417-3.992 3.067.713 5.919 1.497 6.347 1.782 1.141.642.214 2.637-2.139 4.704-1.997 1.64-2.069 1.996-1.855 6.7l.214 4.99 3.138.926c2.71.713 3.423.713 4.707-.142 1.498-.927 1.64-.784 3.78 3.777 1.212 2.638 2.924 5.987 3.78 7.413l1.64 2.709-1.997 2.067-2.068 2.138 2.211 2.494c2.139 2.424 2.353 4.277.641 4.847-.499.214-3.565.927-6.846 1.711-5.277 1.212-6.204 1.639-8.13 3.991-1.212 1.497-2.496 2.638-2.924 2.566-.428-.071-1.854-.213-3.138-.427z" fill="#26323C"/><path d="M474.825 589.97l-7.346 3.065c-5.277 2.138-9.627 3.421-15.333 4.277l-8.985 2.067c2.139 3.421 3.708 8.125 10.34 26.728 2.853 7.983 5.349 14.398 5.563 14.398.285 0 1.712-1.639 3.209-3.635 3.923-5.274 5.349-4.419 7.916 4.562l1.141 4.062 3.637.072c2.069.071 7.346.071 11.696-.072l7.916-.142 2.282 3.207c1.926 2.638 2.639 3.137 4.065 2.851.999-.213 2.068-.997 2.568-1.781.855-1.64.57-1.854-3.709-4.277-1.925-1.069-2.139-1.497-1.426-2.352.499-.642 1.141-1.069 1.569-1.069.428 0 3.423-.856 6.775-1.854 5.776-1.781 5.919-1.853 9.2-6.414l3.28-4.633 3.851.356c3.709.499 3.78.57 4.208-1.425.285-1.141.927-3.35 1.497-4.99.785-2.138.927-4.419.571-8.909l-.499-5.988-6.847-7.983c-3.779-4.419-7.202-8.054-7.63-8.054-.428 0-1.213.499-1.712 1.069-1.569 1.925-3.209 2.424-9.984 3.208l-6.632.713-3.566 3.92c-1.997 2.209-3.994 3.92-4.422 3.849-.428-.143-3.708-3.493-6.989-7.484l-6.204-7.342zm221.435 55.952l-6.419-1.568-2.211-6.273c-1.283-3.421-2.424-6.343-2.567-6.557-.571-.499-29.953-6.843-32.52-6.985-3.352-.214-4.635-2.138-4.208-6.13.286-2.209.856-3.564 2.069-4.419 1.925-1.497 1.782-1.354 5.277-5.417 3.209-3.706 5.42-3.849 5.99-.499.357 1.925 1.213 2.566 9.271 6.557 6.134 2.994 9.771 4.42 11.696 4.42 1.997 0 4.065.855 6.918 2.708 3.708 2.352 4.136 2.922 3.994 4.847-.143 1.924.071 2.138 2.353 2.352 1.64.143 2.995.784 4.065 2.067l1.569 1.925 3.28-1.64c4.137-2.067 5.349-3.35 5.349-5.559 0-1.212 1.498-3.493 4.564-6.914 2.496-2.78 4.921-6.273 5.349-7.627.713-2.138 6.204-8.981 15.119-18.674.784-.856 1.497-3.635 1.997-7.841 1.64-14.255 1.711-15.965.57-17.747-.57-.927-1.997-4.491-3.066-7.912-1.997-6.201-1.997-6.272-.856-10.549 1.284-4.775 1.569-4.134-3.495-8.268-2.424-1.924-1.426-4.205 2.71-6.344 2.496-1.283 3.495-2.209 3.851-3.777.428-1.925.642-2.067 5.563-2.495 5.277-.428 6.918-1.425 6.918-4.134 0-1.497.713-1.568 4.493-.57 2.282.641 2.995.57 3.993-.357 1.712-1.496 2.568-1.354 3.495.713.927 1.996.998 1.996 6.989.998 3.637-.641 5.134-1.354 7.702-3.635 2.638-2.281 3.28-3.35 3.708-6.13.357-2.566 1.07-3.92 3.067-5.702 3.779-3.492 5.848-2.994 2.924.713-2.068 2.708-1.783 5.559 1.283 11.404 4.778 9.195 7.702 13.186 9.913 13.685 1.07.214 3.709 1.426 5.777 2.566 3.494 1.996 3.708 2.352 3.708 4.918 0 2.352-.285 2.851-2.139 3.635-2.496.998-6.633 5.702-12.195 13.828-2.14 3.065-4.208 6.13-4.707 6.771-1.498 1.996.499 7.342 3.209 8.553 3.994 1.782 3.637 4.491-1.569 10.692-2.139 2.637-4.778 4.704-8.059 6.415-4.492 2.352-4.849 2.779-5.419 5.488-.428 2.209-1.284 3.492-3.352 5.203-1.569 1.212-3.495 3.564-4.279 5.061-1.355 2.637-1.641 2.851-4.493 2.851-2.282 0-3.78.499-6.062 2.138-1.926 1.497-3.423 2.067-4.35 1.782-1.854-.57-6.49 1.711-6.49 3.279 0 .712.357 2.067.785 2.993.713 1.497.57 2.139-.714 3.92-2.21 3.137-1.925 4.847 1.07 6.415l2.567 1.283-2.496 1.711c-1.854 1.283-2.638 2.352-2.924 4.419-.499 3.136-.927 3.208-8.486 1.497-3.851-.855-6.846-.998-12.124-.713l-7.06.499-5.563 3.92c-3.28 2.281-6.275 3.849-7.202 3.849-.928-.071-4.565-.784-8.13-1.639z" fill="#26323C"/><path d="M749.461 644.568c-2.496-1.996-2.853-2.637-2.71-4.776.143-1.995.713-2.851 3.138-4.633 1.64-1.211 2.995-2.566 2.995-3.136.072-.499-1.212-1.425-2.781-2.138-3.281-1.354-3.423-1.996-1.355-4.704 1.355-1.711 1.498-2.21.784-4.562-.713-2.21-.641-2.708.428-3.493.713-.57 2.068-.784 3.281-.57 1.569.285 2.638-.071 4.849-1.782 1.926-1.568 3.851-2.352 6.49-2.708 3.28-.428 3.851-.713 4.778-2.78.642-1.283 2.567-3.706 4.422-5.488 2.21-2.138 3.423-3.92 3.708-5.702.428-2.281.927-2.78 4.921-4.562 3.637-1.711 5.135-2.994 8.558-7.27 3.851-4.847 4.136-5.488 3.922-8.482-.214-2.851-.499-3.35-2.496-4.277-3.28-1.354-4.493-5.203-2.496-7.412.784-.856 2.639-3.422 4.208-5.774 4.421-6.985 8.985-12.331 10.911-12.83 2.853-.784 3.566-1.781 3.566-5.131 0-2.424-.428-3.493-1.712-4.776-2.068-1.853-7.631-4.704-9.271-4.704-1.783 0-10.769-14.754-11.268-18.532-.214-1.568.143-1.782 4.493-2.566 8.415-1.568 11.054-3.778 10.27-8.696-.927-5.702-.999-5.773-3.566-6.272-3.281-.641-4.636-3.136-4.636-8.767 0-4.989.143-5.061 6.989-5.061h4.778l1.427 3.635c1.212 3.137 2.353 4.491 7.131 8.197 3.138 2.495 7.56 5.489 9.77 6.772 3.852 2.067 4.065 2.352 3.923 4.704-.143 2.138.214 2.637 2.496 3.991l2.639 1.497 1.711-1.568c.927-.855 1.854-1.568 2.14-1.568.214 0 1.426 1.425 2.71 3.207 1.283 1.711 2.71 3.208 3.138 3.208.499 0 1.711-.713 2.781-1.497 1.069-.855 2.068-1.426 2.211-1.283.071.143.855 2.566 1.711 5.346.856 2.922 2.282 5.844 3.281 6.842l1.783 1.782-1.498 1.853c-.785 1.069-1.355 2.352-1.212 2.851.142.571 2.282 2.638 4.778 4.705l4.493 3.777-3.994 3.992c-2.924 2.993-4.422 5.274-5.705 8.838-2.068 5.346-1.926 6.629.855 7.27 1.07.285 3.352 2.067 5.064 3.992l3.138 3.563-1.926 4.277c-1.854 4.134-1.925 4.633-1.711 14.897.214 10.05.285 10.691 1.925 12.473 1.997 2.067 1.426 3.208-2.139 4.704-1.569.642-2.639 1.925-3.851 4.705-1.07 2.423-2.282 4.062-3.352 4.419-3.637 1.425-8.059 1.568-11.625.499-5.42-1.64-6.347-1.426-8.557 1.782-2.211 3.207-2.568 3.278-7.988 1.71-4.707-1.354-10.483-1.069-12.195.713-.642.642-2.781 3.92-4.778 7.342-3.423 5.915-3.994 6.486-12.552 12.758l-8.914 6.629-11.91 1.425c-16.117 1.996-16.83 1.996-20.396-.855zm58.408-28.653c5.063-1.711 7.844-3.35 12.836-7.484l2.496-2.067-1.854-1.996c-1.569-1.782-1.711-2.423-1.283-5.203.285-1.782.285-3.421 0-3.707-.214-.213-2.568-.926-5.135-1.496-4.35-.998-4.85-.927-7.274.285-1.712.855-2.639 1.853-2.639 2.78 0 .784-.856 1.781-2.139 2.494-2.283 1.141-3.566 2.994-3.566 5.203 0 2.495-3.352 4.491-6.704 4.063-2.71-.356-3.067-.214-5.206 2.566-1.284 1.568-2.353 3.35-2.353 3.778 0 .784 5.919 1.71 16.188 2.423.785.071 3.851-.641 6.633-1.639z" fill="#26323C"/><path d="M793.606 615.345c-3.352-.357-6.134-.785-6.276-.927-.143-.071.642-1.283 1.711-2.637 1.855-2.352 2.068-2.424 4.137-1.568 1.925.784 2.424.712 4.849-.927 1.997-1.354 2.71-2.281 2.71-3.706 0-2.139.998-3.564 3.78-5.275 1.07-.641 1.925-1.782 1.925-2.494 0-1.426 2.71-2.923 5.206-2.923.856 0 2.782.357 4.351.784l2.71.713-.357 3.35c-.285 2.78-.143 3.635 1.141 4.989.998.998 1.284 1.782.785 2.139-.428.285-2.14 1.639-3.923 3.065-3.138 2.565-12.623 6.414-15.261 6.201-.785 0-4.137-.357-7.488-.784zm-92.14 13.827c-.285-.927-1.284-1.497-3.209-1.853-2.496-.428-2.782-.713-2.568-2.067.5-2.352-8.558-8.268-12.551-8.268-2.068 0-5.278-1.212-11.054-4.063-7.346-3.564-8.273-4.277-8.701-6.201-.927-4.491-4.421-4.562-8.7-.143-3.067 3.136-3.138 3.208-4.85 2.067-1.426-.926-2.139-.998-3.565-.356-1.641.784-2.568.428-9.057-3.208-6.205-3.421-7.845-4.062-11.054-4.134-3.637 0-3.923-.213-6.918-3.563-1.712-1.996-3.138-3.778-3.209-4.063 0-.214 1.64-1.497 3.566-2.709 1.996-1.283 3.565-2.352 3.637-2.423 0-.071.57-3.493 1.283-7.555 1.141-6.558 1.141-7.841.357-10.264-1.141-3.136-1.498-2.424 4.992-10.05l2.781-3.279-2.282-5.844c-1.212-3.279-2.211-6.344-2.211-6.843 0-.428.928-2.709 2.14-5.061l2.139-4.205 4.065-.428c6.419-.712 6.989-.926 8.059-2.851.571-.998 1.212-1.782 1.498-1.639.285.071 1.854 1.924 3.494 3.992 2.567 3.278 3.209 3.706 5.206 3.563 2.282-.214 2.282-.285 2.354-4.205 0-3.706.356-4.49 5.491-12.331l5.491-8.268-1.07-2.637c-1.497-3.493-1.426-3.706 1.427-4.205 2.068-.357 3.138 0 6.917 2.352 4.422 2.779 9.343 4.49 11.126 3.92.428-.143.855-1.14.855-2.21 0-.998.642-3.278 1.427-4.989 1.925-4.277 1.854-4.776-1.427-6.914-3.137-2.067-3.28-2.637-1.782-5.274.57-.998 1.069-3.493 1.069-5.489 0-3.563-.071-3.706-2.353-4.49-1.355-.428-3.281-1.711-4.35-2.78-1.783-1.924-1.926-2.281-1.213-4.846.428-1.497.785-3.849.785-5.132 0-1.854.784-3.35 3.138-6.059 2.995-3.564 3.137-3.991 4.421-11.76l1.284-8.055-2.71-2.281-2.71-2.209.57-7.627.5-7.626 4.849-3.279c4.35-2.851 4.921-3.065 5.563-1.996.57.998.214 1.782-1.569 3.564-2.71 2.851-2.211 3.493 3.352 4.205l4.207.642 2.71 4.419c1.498 2.423 2.781 5.346 2.924 6.415.143 1.354 1.141 2.566 3.209 3.92 2.71 1.853 2.924 2.21 2.354 3.849-.428.998-.713 2.423-.713 3.136 0 1.996 6.418 11.404 7.773 11.404 3.067 0 3.138.428 1.854 15.681l-1.284 14.469 2.782 2.352c4.207 3.636 4.992 3.635 8.415.428 2.781-2.637 12.694-9.408 13.835-9.408.286 0 1.427 1.069 2.496 2.494 1.07 1.354 2.282 2.495 2.639 2.495.357 0 1.783-1.497 3.209-3.35 2.068-2.709 2.496-3.92 2.496-6.7 0-2.637.856-5.274 3.851-11.547 3.78-8.054 3.851-8.125 6.561-8.624 6.561-1.069 7.489-.784 12.053 3.849 2.353 2.352 4.564 4.276 4.992 4.205.356 0 1.997-.642 3.566-1.354 1.569-.784 3.423-1.426 4.065-1.426 1.212 0 12.052 13.258 12.551 15.325.143.641-1.212 1.069-5.206 1.425-6.276.57-6.775 1.069-6.775 7.057 0 5.345 1.997 9.408 4.992 10.049 2.496.499 3.78 2.852 3.423 6.344-.285 2.637-2.995 4.348-7.987 5.061l-3.495.499 1.213-1.64c1.569-2.281 1.498-2.566-.927-3.849-1.997-.998-2.14-.998-5.705 1.854-3.067 2.565-3.638 3.421-4.066 6.129a10.587 10.587 0 01-2.638 5.631c-2.71 3.136-3.566 3.564-8.415 4.205-3.994.499-3.994.499-4.779-1.71-.927-2.637-1.711-2.78-4.492-.713-1.997 1.354-2.283 1.426-5.206.428-3.566-1.283-4.422-.927-5.135 1.995-.642 2.78-1.355 3.137-6.133 3.208-5.135 0-6.276.428-6.276 2.495 0 1.995-.713 2.708-4.636 4.846-2.139 1.212-2.924 2.139-3.28 3.992-.571 2.922-.214 4.134 1.426 4.633.713.214 1.926 1.069 2.71 1.782 1.426 1.354 1.498 1.568.428 5.631-1.07 4.276-1.07 4.347 1.212 11.261 1.284 3.92 2.568 7.342 2.924 7.698.856.927.785 7.484-.071 13.186-.428 2.566-.927 5.702-1.141 6.914-.214 1.568-2.567 4.775-7.773 10.691-4.565 5.132-7.774 9.48-8.273 11.048-.428 1.426-2.995 5.061-5.705 8.054-3.566 3.992-4.921 5.988-4.921 7.413 0 1.568-.571 2.281-2.639 3.35-1.497.784-2.924 1.497-3.138 1.568-.285.143-.641-.356-.784-1.14zm9.77-19.744c2.496-2.993 6.133-12.259 5.634-14.184-.071-.427-.356-1.639-.57-2.779l-.5-1.996-6.347.214c-5.919.213-6.418.142-8.344-1.568-4.207-3.778-4.065-3.778-7.916-1.426-3.993 2.495-4.564 2.566-8.486 1.212-2.211-.784-2.996-.856-3.994-.143-1.64 1.212-1.569 1.64 1.212 7.769l2.425 5.275 4.422.427c2.496.286 5.99.499 7.844.499 3.352 0 3.352 0 6.775 4.99 1.926 2.708 3.851 4.989 4.279 4.989.5 0 2.14-1.497 3.566-3.279z" fill="#26323C"/><path d="M706.458 609.286c-.571-.642-2.068-2.78-3.352-4.633l-2.282-3.35-6.561-.071c-3.637 0-7.132-.285-7.845-.571-.784-.285-2.282-2.708-3.423-5.345-2.353-5.56-1.854-6.344 2.995-4.419 2.924 1.14 2.924 1.14 6.775-1.07l3.923-2.209 3.565 2.993c3.21 2.638 3.78 2.923 5.206 2.139.856-.428 3.352-.713 5.492-.57 3.78.213 3.851.213 4.065 2.566.356 3.136-2.14 10.121-4.636 13.257-2.282 2.922-2.496 2.994-3.922 1.283zm-163.883 31.718c-1.427-.713-1.783-1.497-1.997-4.205-.214-2.923 0-3.493 1.711-4.633 3.566-2.424 10.983-10.121 10.983-11.404 0-.713-.499-3.208-1.07-5.56-1.426-5.987-1.355-7.413.785-10.193 1.854-2.352 1.854-2.494.784-5.203-.856-2.209-.927-3.278-.285-5.274.927-3.136.499-3.635-2.425-2.566-1.284.428-2.425.641-2.567.499-.143-.143.356-1.711.998-3.493 1.213-3.278 1.213-3.35-.428-6.201-1.497-2.708-1.64-5.06-.285-4.989.357 0 1.498 1.497 2.567 3.207 2.354 3.635 3.281 3.849 11.197 2.139 2.567-.571 4.921-.713 5.206-.428.357.356.927 1.996 1.284 3.706.356 1.711 2.781 7.199 5.277 12.117 2.567 4.99 4.636 9.409 4.636 9.979 0 .499-1.07 2.067-2.354 3.421-1.355 1.426-2.781 3.92-3.28 5.56-.642 2.494-1.926 3.92-6.847 8.054-4.065 3.35-6.204 5.702-6.489 6.985-.999 4.704-1.284 4.989-6.49 5.488-6.419.571-7.417.927-7.203 2.353.285 1.496-1.426 1.781-3.708.641z" fill="#26323C"/><path d="M545.428 625.18c0-1.069-1.569-1.568-9.343-3.279-3.851-.784-4.065-.997-4.493-3.421-.214-1.425-.428-4.419-.428-6.7 0-3.991-.071-4.205-4.421-9.266-2.496-2.851-6.133-7.127-8.201-9.479l-3.709-4.348-1.07-8.839c-.57-4.918-1.283-10.335-1.568-12.117l-.428-3.278 5.348-1.141c2.924-.641 7.061-2.209 9.129-3.421 3.209-1.924 4.707-2.281 11.909-2.851 4.493-.428 8.202-.642 8.344-.499 3.637 4.562 6.775 9.765 6.775 11.262 0 1.14-.927 2.779-2.638 4.419-1.498 1.425-3.281 3.778-4.065 5.132-1.355 2.494-1.355 2.494.356 5.702l1.64 3.136-1.568 3.849c-.856 2.067-1.569 4.205-1.569 4.775 0 .927.214.927 4.564-.498 1.141-.286 1.283-.143.927 1.211-.214.927.143 2.709.713 3.992 1.141 2.352 1.141 2.494-.856 5.345-1.997 2.851-1.997 3.065-1.141 6.986 1.926 8.838 1.926 9.265-.642 11.903-2.638 2.708-3.565 3.065-3.565 1.425z" fill="#26323C"/><path d="M653.97 336.155c2.139.57 4.065 1.924 6.347 4.277l3.28 3.421 2.211 11.76c1.284 6.415 2.282 12.117 2.282 12.616 0 .428-1.141 2.21-2.496 3.849-2.995 3.707-3.067 4.704-.428 6.629 1.712 1.283 2.068 2.138 2.496 5.987.357 3.707.999 5.346 3.637 9.337 1.783 2.638 3.209 5.275 3.209 5.916 0 .642-.641 2.424-1.497 4.063-1.284 2.495-1.426 3.778-1.07 7.555.214 2.566.571 4.776.856 5.061.499.499 1.854.57 11.553.641l6.918.143-4.208 2.78c-2.353 1.568-4.493 3.278-4.778 3.777-.285.499-.642 4.562-.713 9.053l-.143 8.054 2.353 1.995c2.211 1.782 2.354 2.139 1.926 5.061-1.926 12.901-1.712 12.046-4.849 15.325-2.71 2.779-3.138 3.563-3.566 7.555-.286 2.494-.785 5.132-.999 5.987-.57 1.924 3.138 6.344 6.561 7.769 2.924 1.212 3.067 3.065.571 7.769-.999 1.853-1.783 3.635-1.783 3.92 0 .357 1.498 1.497 3.281 2.566 2.282 1.355 3.137 2.21 2.923 3.065-.213.642-.784 2.281-1.283 3.707-.428 1.354-.927 2.851-1.07 3.35-.285 1.069-2.068 1.069-4.493.142-.927-.427-3.566-1.853-5.848-3.207-3.423-2.067-4.564-2.424-6.561-2.067-1.997.356-4.35.855-4.849 1.497-.499.641-.499 1.283 0 2.28 2.425 4.42 2.425 4.491-3.209 12.973-4.707 7.199-5.278 8.482-5.278 11.546 0 4.633-1.212 4.42-5.348-.855-1.783-2.352-3.566-4.276-3.923-4.276-.285 0-1.497 1.14-2.639 2.566-1.996 2.423-2.424 2.637-7.06 3.064l-4.921.428-2.638 4.989c-1.498 2.709-2.639 5.489-2.71 6.059 0 .57.998 3.635 2.139 6.7 2.425 6.272 2.71 5.488-3.066 12.117l-3.495 3.92 1.07 3.207c.998 2.923.998 3.921 0 9.979l-1.141 6.7-3.78 2.637c-2.139 1.497-3.851 3.137-3.851 3.707 0 .57 1.854 3.065 4.136 5.559 2.211 2.566 4.065 4.847 4.065 5.061 0 .285-3.494 1.497-7.844 2.78l-7.845 2.281-.642 2.993c-.428 1.925-1.284 3.421-2.353 4.134-.927.57-2.924 3.208-4.422 5.845-4.707 7.983-7.274 9.836-16.474 11.76-.57.143-3.566-.142-6.561-.57-4.564-.641-5.919-1.14-7.488-2.78l-1.997-1.995 4.065-3.707c2.853-2.566 4.279-4.561 4.778-6.415.357-1.425 1.855-3.991 3.21-5.63 1.426-1.64 2.567-3.422 2.567-3.992 0-.499-2.211-5.346-4.921-10.691-2.638-5.417-5.135-11.119-5.348-12.759-.928-5.132-1.427-5.417-7.417-4.205-7.631 1.639-8.772 1.497-10.626-1.212-2.496-3.706-2.568-4.348-.214-6.557 1.783-1.711 2.139-2.637 2.139-5.203 0-2.566-.57-3.992-3.138-7.627l-3.138-4.49 1.284-1.996c.856-1.283 1.212-2.709.927-4.134-.285-1.853.214-2.922 2.568-5.916 2.353-2.922 2.923-4.205 2.923-6.557 0-2.709-.142-2.923-2.638-3.564-9.556-2.495-8.772-2.067-8.772-4.918 0-3.279.285-3.635 4.493-6.486 3.708-2.566 3.851-3.065 2.211-7.199-1.07-2.709-1.284-2.851-4.208-2.851-2.924 0-3.28-.286-6.775-4.633-4.136-5.061-4.136-5.061-14.12-5.774-8.059-.57-9.485-1.497-7.346-4.775 1.355-2.139 1.355-2.21-.214-6.415-1.07-3.065-1.284-4.348-.642-4.562 1.284-.499 11.91-8.197 12.481-9.052.927-1.354.641-1.711-3.994-4.419-3.423-1.996-4.921-3.35-5.848-5.417-1.426-3.136-1.284-3.35 5.063-10.193 4.279-4.633 4.493-5.559 2.782-10.62-1.141-3.35-1.141-3.35.855-6.201 3.495-4.847 3.851-5.845 3.851-11.475 0-6.486-.855-7.841-5.847-9.124-3.78-.998-3.424-.142-3.78-9.266-.071-2.209-.214-4.348-.285-4.846 0-.499-1.141-1.426-2.496-1.925l-2.354-.998-.499-7.27c-.499-6.13-.856-7.769-2.567-10.62-1.284-2.21-2.283-5.346-2.853-8.838-.713-4.847-.642-5.56.642-8.055 1.284-2.494 4.279-7.056 4.992-9.123.713-2.067.499-3.136-1.783-9.622l-2.639-7.27-2.567.498c-5.063.927-5.206.856-8.344-3.563-1.712-2.352-3.067-4.491-3.138-4.776 0-.285 1.926-1.853 4.279-3.564 4.493-3.278 6.133-5.987 6.846-11.546.428-2.709.143-3.279-2.496-6.487-1.569-1.995-2.924-3.92-2.924-4.276 0-.428 1.641-2.424 3.638-4.491l3.637-3.777 1.141 1.568c2.424 3.421 3.708 4.276 6.418 4.063l2.639-.214.214-4.419c.214-4.206.142-4.491-3.281-8.91-1.854-2.495-3.637-5.061-3.922-5.773-.499-1.355.784-11.903 1.569-12.759.214-.285 5.919-.998 12.551-1.639 17.401-1.639 18.186-1.782 18.685-2.994.214-.641-.428-2.78-1.426-4.918l-1.855-3.777 2.996-4.42c1.64-2.494 4.635-6.343 6.703-8.553 3.21-3.421 4.921-4.49 12.409-7.84 6.205-2.78 8.915-4.348 9.414-5.56.713-1.425 6.561-5.06 8.273-5.06.356 0 .998.926 1.497 2.067 1.569 3.849 2.068 3.849 9.913.071l7.274-3.564-.214-2.637c-.214-2.423-.071-2.637 2.282-3.279 4.137-1.069 4.493-1.782 3.495-6.7l-.856-4.276 3.495-5.56c1.925-3.065 4.136-5.987 4.92-6.486 1.712-1.283 4.707-1.283 6.276-.143 1.07.856.927 1.212-1.711 4.277-4.065 4.775-3.495 5.845 2.852 5.203 4.707-.499 4.921-.428 5.349 1.141.214.926.428 2.352.428 3.207 0 1.283 1.212 2.423 2.567 2.423.143 0 1.854-1.496 3.851-3.207l3.637-3.207h12.837l4.636 3.706c2.638 2.067 4.849 4.49 5.063 5.488.285.998.499 5.061.571 8.981v7.128l-4.707 7.127c-2.568 3.92-6.347 10.122-8.416 13.757-2.068 3.706-5.134 8.98-6.917 11.76-3.067 4.99-3.78 7.128-2.496 7.912.428.214 2.496.214 4.778-.071 3.851-.428 4.422-.784 10.198-6.059 3.352-3.065 6.347-5.559 6.632-5.559.571 0 .785.57 2.425 8.054 1.141 4.918 1.569 5.844 3.994 7.769 1.569 1.14 4.921 5.417 7.631 9.408 7.488 11.191 7.274 9.694 2.21 15.396-4.849 5.488-5.348 6.7-6.061 14.398-.642 6.771-.999 7.341-4.493 7.056-2.568-.142-2.996.143-7.845 5.203M440.807 537.511h-.142c-.357.214-.714 1.497-.714 2.708 0 1.426-.641 2.851-1.782 4.063l-1.855 1.996 1.498 2.494c1.783 3.065 1.426 3.35-5.063 5.061l-4.707 1.212-1.569 5.488-1.569 5.417 2.425 3.564c2.71 3.777 2.71 4.134.142 9.978l-1.141 2.78 1.569-.356c.927-.214 3.209-.855 5.135-1.354 2.71-.784 3.423-.713 4.136 0 .713.712.713 1.354-.57 3.635-.928 1.497-1.641 3.278-1.641 3.777 0 .499 2.068 3.208 4.493 6.201 1.141 1.426 2.068 2.424 2.853 3.564 3.209-1.283 6.561-1.924 10.055-2.494 5.706-.927 9.913-2.067 15.333-4.348l7.488-3.208 3.923 4.419c2.139 2.424 5.063 5.774 6.561 7.342l2.638 2.922 3.637-3.635 3.638-3.778 6.418-.498c7.417-.571 10.626-2.353 10.626-5.916 0-3.422-2.353-21.811-2.853-22.452-.285-.286-2.567.427-4.992 1.71-2.424 1.212-4.707 1.996-5.063 1.711-.357-.357-1.07-3.208-1.712-6.344-.57-3.065-1.355-5.844-1.64-6.13-.285-.285-3.209-.071-6.49.357-5.348.641-6.061.499-6.917-.57-.571-.856-2.71-1.426-5.848-1.925l-4.992-.713-2.496-4.134c-1.284-2.209-3.352-4.633-4.636-5.488-2.425-1.711-22.036-7.341-24.176-7.056z" fill="#26323C"/><path d="M402.725 586.192c-.214-.356-.214-1.781.071-3.207.57-3.065-.071-3.991-5.777-7.627-3.351-2.209-4.849-2.708-6.989-2.566-1.854.143-2.924-.142-3.28-.855-.357-.57-.999-5.417-1.498-10.834l-.856-9.765 3.495-6.985 3.423-6.985 4.279-1.069 4.279-1.069-.143-4.277c-.356-6.985-.927-8.339-4.136-9.194-2.71-.784-2.853-.927-3.067-3.992-.142-2.566.286-3.991 2.211-7.128 1.284-2.138 2.639-3.848 2.996-3.706.427.071 1.141 1.426 1.711 2.994.998 3.065.571 2.851 10.412 5.274 2.354.57 7.132 1.212 10.555 1.497 5.919.428 6.49.356 9.414-1.354 1.711-.998 3.28-1.853 3.494-1.853.214 0 0 1.14-.357 2.565-.641 2.21-.356 3.636 2.211 10.763 3.566 10.121 3.709 12.83.571 16.322-2.211 2.566-2.282 2.638-1.07 4.705.713 1.211 1.07 2.352.927 2.637-.214.285-2.139.927-4.279 1.425-2.211.499-4.35 1.283-4.849 1.782-.5.499-1.712 3.493-2.568 6.7l-1.711 5.845 2.567 3.564 2.568 3.564-1.427 3.635c-.784 1.995-1.355 4.134-1.212 4.704.428 2.637-20.468 6.914-21.965 4.49z" fill="#EF7F1A"/><path d="M499.714 561.174l-1.07-5.844h-6.775c-4.136 0-7.203-.357-7.844-.856-.571-.427-3.067-1.069-5.492-1.354-4.921-.57-4.921-.57-7.987-5.417-2.924-4.704-5.991-6.343-17.829-9.48-5.705-1.496-10.697-2.922-11.268-3.207-.57-.285-2.282-4.063-3.78-8.339-2.71-7.342-2.781-7.912-1.996-11.547.713-2.994 1.782-4.847 5.562-9.337 4.422-5.346 4.85-5.631 7.631-5.702 1.64 0 3.352-.428 3.78-.998.428-.499 2.21-4.705 3.993-9.338 1.712-4.632 3.352-8.553 3.495-8.766.142-.143 3.209-.072 6.846.213 6.205.499 6.561.642 7.56 2.566l1.069 2.067 5.848-.499c5.705-.427 5.991-.356 10.983 2.139 2.852 1.425 5.634 2.637 6.133 2.637.57 0 3.209-1.426 5.919-3.208 3.78-2.423 5.135-2.993 6.133-2.423.713.356 1.284.998 1.284 1.354 0 .428.784.998 1.712 1.355 1.069.427 2.353 1.924 3.209 3.991l1.497 3.35-1.426 1.996c-1.355 1.924-1.426 2.209-.428 4.134 1.213 2.281 1.854 2.423 12.837 3.421 5.634.428 5.705.499 8.558 3.706 5.634 6.273 5.99 6.558 8.629 6.558 2.068 0 2.639.285 3.209 1.782 1.07 2.78.999 2.851-2.781 5.274-3.637 2.352-4.35 3.849-4.35 9.052 0 2.139.214 2.424 3.066 3.136 6.989 1.925 8.701 2.638 8.915 3.636.142.641-1.284 3.136-3.067 5.559-2.781 3.778-3.28 4.847-2.924 6.7.713 4.134-.57 4.847-10.412 5.631-7.916.641-9.128.927-12.765 3.065-2.354 1.354-6.347 2.78-9.485 3.421-2.924.642-7.275 2.138-9.628 3.279-2.353 1.211-4.564 2.209-4.921 2.209-.356 0-1.069-2.637-1.64-5.916zm56.411 100.999c-.785-.855-.642-1.354.642-2.709 1.996-2.138 1.925-2.851-.642-6.913-1.141-1.925-2.853-5.346-3.851-7.627-1.997-4.704-1.712-5.132 3.28-5.132 3.994 0 5.42-1.211 5.991-5.06.285-1.497 1.07-3.279 1.783-3.992 1.355-1.14 1.497-1.069 3.851 1.141 2.21 2.138 2.995 2.423 8.914 3.064 11.981 1.355 18.4-1.639 24.034-11.19 1.354-2.352 3.565-5.274 4.92-6.557 1.498-1.355 2.425-2.851 2.425-3.992 0-2.281.927-2.922 5.705-4.276 12.552-3.564 12.267-3.422 11.91-4.847-.642-2.566 3.209-1.568 11.268 2.851 6.846 3.706 7.916 4.134 9.77 3.492 1.498-.57 2.353-.499 3.067.143.927.784.855 1.069-.571 2.423-2.496 2.352-3.209 8.34-1.212 11.048.784 1.141 1.426 2.352 1.426 2.709 0 .356-2.211 3.777-4.992 7.697-2.71 3.849-4.992 7.199-4.992 7.484 0 .214 1.284 3.636 2.853 7.627 1.568 3.992 2.852 7.555 2.852 7.983 0 .428-1.569 1.568-3.566 2.566-3.423 1.711-3.993 1.782-17.401 1.782h-13.835l-.856-3.635c-.57-2.281-1.426-3.92-2.424-4.491-.785-.499-5.991-1.639-11.482-2.566l-9.984-1.568-13.764 6.843c-7.56 3.778-13.836 6.842-13.978 6.842-.143 0-.642-.499-1.141-1.14z" fill="#26323C"/><path d="M345.102 549.485c-7.631-.855-11.054-.927-13.194-.356-2.139.57-4.778.427-10.84-.499-4.35-.642-8.201-1.426-8.486-1.711-.214-.285.427-1.639 1.497-3.065 1.07-1.354 1.783-2.922 1.569-3.421-.214-.499-2.496-1.497-5.063-2.21-2.568-.641-4.707-1.497-4.707-1.71 0-1.141 4.279-6.985 6.704-9.338 2.496-2.423 2.567-2.566 2.567-7.84v-5.488l2.496-1.141c1.426-.712 3.281-1.211 4.208-1.211 2.924 0 8.344 2.28 9.485 3.991 1.355 2.138 2.139 2.138 4.849 0 2.995-2.423 4.85-1.425 4.208 2.281-.642 3.92 3.779 12.758 6.703 13.329 3.709.784 7.916 3.136 9.129 5.132.713 1.069 2.638 3.278 4.279 4.846 4.136 3.849 4.493 5.489 1.783 7.413-2.996 2.138-5.135 2.21-17.187.998z" fill="#EF7F1A"/><path d="M332.194 513.562c-.999-1.497-7.988-4.206-10.983-4.206-.784 0-2.71.642-4.35 1.497l-2.853 1.568-2.781-1.924c-1.569-.998-3.209-1.854-3.637-1.854-.713 0-2.853-.926-11.482-4.775-1.497-.641-2.353-1.497-2.353-2.352 0-2.067-1.284-2.424-4.208-1.141l-2.71 1.212-4.707-2.566c-5.134-2.851-5.134-2.851-3.779-8.553l.784-3.564 3.922-.356c3.851-.357 3.923-.428 5.634-3.778 1.712-3.564 2.211-3.777 6.49-2.78 3.494.856 4.208.428 4.707-2.851.499-2.993.143-2.708 7.987-5.987 1.997-.855 2.282-1.354 2.14-3.35-.072-1.354.428-3.136 1.069-4.134 1.569-2.209 1.498-3.635-.214-6.914-1.996-3.706-1.854-5.702.571-6.7 1.854-.855 7.06-5.916 11.838-11.618 1.355-1.639 2.639-4.134 2.924-5.702.571-3.35 2.282-6.914 3.637-7.698.571-.356.999-1.14.999-1.853 0-.713.428-1.853.998-2.637.999-1.354 1.07-1.283 1.783.784 1.284 3.564 1.854 4.205 5.278 6.058 2.71 1.426 3.993 2.923 7.345 8.482l4.065 6.629-1.569 6.7-1.498 6.629 1.569 3.136c1.427 3.065 1.427 3.35.428 7.555l-1.141 4.348 2.14 1.782c1.141.927 2.353 1.782 2.567 1.782.285 0 1.426.784 2.496 1.782 1.64 1.568 1.926 2.352 1.926 5.916.071 2.209.499 4.846 1.069 5.844.571.927 1.07 3.422 1.07 5.417v3.635l-2.639.428c-4.136.713-6.989.57-7.844-.356-1.284-1.212-5.92 9.337-5.92 13.4 0 1.71-.142 3.136-.356 3.136s-1.355-.499-2.567-1.141c-1.997-.997-2.211-.997-4.493.784l-2.354 1.782-.998-1.496z" fill="#26323C"/><path d="M373.129 549.057c-6.062-2.067-6.704-2.423-7.417-4.562-.357-1.282-1.997-3.35-3.494-4.561-1.569-1.212-3.21-3.065-3.709-4.063-1.212-2.495-5.919-5.631-9.271-6.13-2.425-.427-2.853-.855-4.849-4.775-2.496-5.132-2.639-6.273-.714-8.696.999-1.283 1.427-2.922 1.427-5.488 0-2.424.57-4.776 1.783-7.128 1.925-3.778 2.496-3.991 11.054-4.49l3.209-.143.214-3.777c.214-3.493.356-3.707 2.068-3.707 1.07 0 3.209-.641 4.778-1.354 1.64-.784 5.777-2.067 9.271-2.922 7.132-1.711 13.336-5.417 14.762-8.767.428-1.07 1.141-1.925 1.569-1.925.428 0 3.851 1.711 7.631 3.849 6.846 3.92 6.918 3.991 10.911 10.549 2.211 3.635 4.636 8.054 5.42 9.907 1.427 3.208 1.641 3.35 8.059 5.56 3.637 1.283 6.918 2.566 7.274 2.922.286.285-1.141 1.711-3.209 3.065-3.851 2.424-3.851 2.495-8.843 1.782-6.704-.855-12.266-1.853-15.476-2.78-2.353-.641-2.781-1.14-4.207-4.989-1.07-2.851-1.926-4.205-2.781-4.205-.714 0-2.568 2.138-4.707 5.488-3.281 5.203-3.495 5.845-3.495 10.406 0 5.061.642 6.13 3.637 6.201 2.14 0 2.996 1.283 3.495 5.417l.499 3.564-3.994.927-4.065.855-4.065 8.197c-2.567 5.203-4.421 8.054-5.134 8.054-.571-.071-4.065-1.069-7.631-2.281z" fill="#EF7F1A"/><path d="M427.756 505.578c-6.347-2.352-8.486-3.635-8.486-5.131 0-.428-2.211-4.491-4.921-8.981l-4.849-8.126-8.059-4.633c-7.417-4.205-8.13-4.49-8.843-3.278-3.423 5.773-7.988 8.695-16.759 10.762-3.78.927-7.845 2.21-8.986 2.78-3.709 1.925-5.135 1.497-6.775-2.067-.856-1.924-1.426-4.633-1.426-6.985v-3.849l-3.923-2.637c-4.279-2.851-4.421-3.279-3.138-8.767.713-3.065.642-3.778-.713-6.201l-1.569-2.78 1.498-6.7 1.569-6.7-4.493-7.555c-3.922-6.7-4.85-7.698-7.631-8.981-2.353-.998-3.423-1.996-4.208-3.992-1.711-4.062-1.355-6.913 2.14-15.752 3.352-8.41 4.065-9.408 10.769-14.469 2.21-1.71 2.567-2.423 2.567-4.846 0-2.424.499-3.422 3.138-6.202 2.995-3.136 3.28-3.278 4.921-2.352 1.711.856 2.139.713 6.989-2.708 2.852-1.996 5.919-3.635 6.846-3.635 1.569 0 1.64.285 1.64 4.49 0 3.707-.428 5.275-2.211 8.553l-2.21 4.063 2.567 3.421 2.496 3.422 7.702.926c4.778.57 9.057 1.497 11.339 2.495 3.566 1.639 3.637 1.71 3.566 4.704-.071 2.994.071 3.208 3.423 5.132l3.495 2.067 5.206-1.568 5.277-1.568 3.423 2.851c3.067 2.566 3.423 3.136 3.78 6.7.214 2.423 1.355 5.845 3.138 9.337l2.781 5.56h4.564c4.422 0 4.707.071 9.414 3.849 4.422 3.492 5.349 3.92 11.125 4.918l6.276 1.14 4.992 5.417 4.992 5.346h13.764l4.065-3.35 4.065-3.35 4.065 4.419c3.851 4.134 4.279 4.419 7.274 4.419 2.282 0 4.208.642 7.417 2.495 2.353 1.425 4.778 2.851 5.349 3.136.642.356.998 1.283.856 2.423-.428 3.493 2.353 8.126 6.204 10.549 1.997 1.212 3.423 2.566 3.209 2.923-.856 1.283-10.198 6.985-11.553 6.985-.713 0-1.925-.642-2.639-1.426-.713-.784-1.711-1.425-2.21-1.425-.5 0-3.424 1.496-6.419 3.35l-5.42 3.35-5.277-2.709c-5.206-2.708-5.42-2.708-10.626-2.281-5.278.499-5.349.499-6.133-1.354-.5-.998-1.569-1.996-2.354-2.138-2.995-.571-14.477-.998-15.19-.499-.428.285-2.068 3.92-3.637 8.054-3.994 10.62-3.994 10.62-7.203 10.62-2.567 0-3.067.357-7.203 5.275-2.496 2.993-5.063 5.345-5.634 5.345-.57 0-3.851-1.069-7.203-2.281z" fill="#EF7F1A"/><path d="M512.479 456.968c-4.065-2.423-6.275-3.207-8.415-3.207-2.567 0-3.28-.428-6.561-3.992-5.349-5.773-5.349-5.773-10.127-1.71l-4.136 3.564h-12.338l-4.778-5.275-4.778-5.274-6.49-1.212c-5.99-1.212-6.917-1.639-11.339-5.132-4.707-3.635-5.063-3.778-9.413-3.849h-4.493l-2.71-5.845c-1.712-3.848-2.639-6.913-2.639-8.838 0-2.708-.357-3.279-3.708-6.272-2.069-1.782-4.279-3.208-4.921-3.208-.713 0-3.209.571-5.705 1.355l-4.422 1.425-2.995-1.782c-2.71-1.568-2.996-1.995-2.996-4.704 0-4.562-3.637-6.344-15.76-7.769-7.275-.855-7.346-.855-9.057-3.421-2.211-3.208-2.211-3.493 0-7.342 1.426-2.566 1.783-4.063 1.783-8.553v-5.488l2.139-.428c1.141-.285 3.708-1.924 5.634-3.635 3.28-2.994 4.065-3.279 9.841-4.277 8.558-1.496 7.916-1.211 13.55-6.557 3.709-3.564 5.349-5.702 5.991-7.912.784-2.637.784-3.207-.143-3.706-3.138-1.925-3.138-1.782-.428-5.773 1.498-2.067 2.639-4.206 2.639-4.633 0-.428-.856-2.495-1.854-4.491-1.854-3.706-1.854-5.702-.071-5.702.499 0 4.065 4.776 7.916 10.692 4.992 7.555 7.416 10.691 8.344 10.691.855 0 2.21-1.283 3.565-3.421 2.782-4.419 3.138-6.059 1.712-8.268-.927-1.426-1.07-2.638-.642-5.845.499-4.063.499-4.063-2.139-6.272l-2.71-2.21 1.711-2.138c.856-1.141 2.853-4.633 4.279-7.769 2.496-5.489 2.567-5.774 1.498-7.627-1.926-3.279-.856-5.06 5.776-9.195 5.349-3.349 6.561-4.561 11.411-11.119 3.494-4.775 5.919-7.412 6.775-7.412 1.355 0 9.271 2.708 10.198 3.563.356.286.357 2.139.071 4.206-.428 3.136-1.212 4.561-5.348 9.765-2.71 3.421-4.921 6.771-4.921 7.626 0 .784.499 3.35 1.141 5.631 1.141 4.063 1.141 4.205-.713 9.765-.999 3.136-1.855 6.272-1.855 6.985 0 .713-1.141 4.704-2.496 8.767s-2.496 8.054-2.496 8.838c0 .784.856 3.421 1.855 5.774l1.783 4.347-2.924 5.489c-1.641 2.993-3.21 5.488-3.566 5.488-.357 0-2.568 2.352-4.992 5.346-4.208 5.203-4.351 5.345-7.56 5.345-1.711 0-5.42-.712-8.058-1.496-9.985-3.065-11.768-.784-4.85 6.272 4.921 5.061 10.198 7.983 14.263 8.054 4.279 0 12.552-4.205 15.69-8.125 1.497-1.853 4.635-4.633 6.989-6.201l4.207-2.851v-8.126c0-9.123.357-9.979 4.778-10.763 4.065-.784 5.991.713 7.203 5.417 2.354 9.551 2.211 9.266 4.279 9.266 1.07 0 2.995-.712 4.35-1.496l2.354-1.426-.499-5.132c-.286-2.851-.785-5.845-1.07-6.629-.357-.855-2.781-3.064-5.42-4.989-4.065-2.922-5.634-3.564-9.842-4.205-4.421-.642-5.063-.927-5.491-2.495-1.212-4.49-.713-6.771 2.924-12.473 1.997-3.136 3.566-5.988 3.566-6.415 0-.428-.785-3.92-1.712-7.841-1.997-7.983-1.783-8.909 2.568-12.901 3.637-3.421 8.771-6.842 8.985-6.129.143.427-.927 3.706-2.282 7.484-1.426 3.706-2.567 7.127-2.567 7.555 0 1.568 13.621 9.337 16.474 9.337 1.64 0 3.423-1.853 3.494-3.492 0-.499-2.068-3.279-4.635-6.13-2.568-2.851-4.636-5.702-4.636-6.272 0-1.925 1.427-2.21 3.138-.571 1.783 1.64 3.352 1.854 5.491.713 1.855-.927 1.712-2.281-.499-6.058-1.497-2.566-1.711-3.35-.998-4.277 2.139-2.495 5.134-.214 3.352 2.637-.714 1.141-.642 1.568.214 2.281.641.428 2.567 2.352 4.278 4.277l3.067 3.421-3.28 3.35c-1.855 1.853-3.352 3.706-3.352 4.134 0 .499 1.426 2.423 3.209 4.419 3.423 3.706 3.708 5.061 2.425 9.48-.642 2.067-1.997 3.635-5.706 6.486-2.638 2.067-4.992 4.134-5.206 4.633-.356.784 2.853 5.916 6.847 10.905 1.925 2.424 1.996 2.424 4.992 1.64 1.711-.499 3.28-.642 3.566-.357.285.285 1.355 2.851 2.353 5.702l1.783 5.132-3.566 7.057-3.566 6.985.785 5.63c.57 3.849 1.497 6.843 2.995 9.551 1.925 3.422 2.211 4.776 2.496 10.692.357 7.341.927 9.266 2.853 9.266 2.424 0 2.995 1.497 2.995 7.912 0 6.913.499 7.697 5.349 8.838 3.565.855 3.922 1.568 3.922 7.056 0 4.918-.143 5.346-2.924 9.266l-2.995 4.134 1.212 3.707c.642 2.067 1.141 4.205 1.141 4.775 0 1.283-6.989 9.195-8.058 9.195-.5 0-3.352-1.497-6.348-3.208z" fill="#EF7F1A"/><path d="M271.932 566.734c-.214-.571-.071-2.067.356-3.35.999-2.851.214-3.921-3.708-4.562-5.42-.855-5.705-1.283-3.851-5.132.927-1.853 2.425-5.346 3.352-7.84 2.068-5.702 6.917-10.549 9.841-9.836 4.85 1.211 5.349.997 7.774-3.493 3.78-6.985 2.924-9.551-2.71-8.268-2.425.499-4.493.356-9.129-.642-3.28-.712-6.133-1.568-6.418-1.924-.285-.356-1.141-1.996-1.854-3.706l-1.355-3.065 1.783-1.355c3.066-2.423 4.635-2.423 7.559-.142 2.282 1.853 3.566 2.21 8.487 2.637 6.703.642 6.561.713 8.843-6.201.856-2.637 1.783-4.775 1.997-4.775 1.497 0 16.474 6.557 18.257 7.983 1.711 1.354 2.139 2.28 2.424 5.63.286 3.992.286 3.992-3.28 7.983-3.637 3.992-6.561 8.767-6.561 10.692 0 .641 1.711 1.497 4.635 2.281 2.568.712 4.636 1.425 4.636 1.568 0 .214-.713 1.568-1.498 3.065-1.854 3.278-2.567 3.278-11.91-.143-6.632-2.423-8.272-2.21-10.483 1.069-1.07 1.711-1.07 2.138.642 7.342 1.854 5.916 1.497 6.985-1.64 5.274-2.069-1.14-7.631-.927-8.915.356-.57.571-1.284 2.495-1.569 4.277-.214 1.782-.927 3.706-1.497 4.277-1.355 1.354-3.709 1.354-4.208 0z" fill="#26323C"/><path d="M266.44 587.19c-3.423-2.138-4.35-2.423-5.348-1.71-3.709 2.637-4.279 2.637-7.203-.214-2.282-2.139-2.924-3.421-3.281-6.273-.855-5.773-4.707-8.268-9.913-6.272-1.996.784-1.854.855-7.06-5.274l-1.783-2.139-5.919 1.212c-3.28.713-6.347 1.283-6.846 1.283-.499 0-1.213-1.283-1.64-2.78-.357-1.568-1.284-3.492-1.997-4.419-1.141-1.354-1.498-1.425-2.853-.713-.856.428-1.854.642-2.211.428-.356-.214-1.141-3.35-1.854-6.985-.713-3.635-1.569-7.128-1.854-7.769-.357-.713-2.068-1.853-3.851-2.637-3.138-1.426-3.209-1.497-3.209-4.918 0-4.633-.714-5.204-6.062-4.633l-4.422.356-.428-2.281c-.713-3.35-.784-3.279 2.354-4.205 1.711-.499 3.494-1.711 4.493-3.065.998-1.354 3.708-3.136 7.274-4.847 4.921-2.352 6.49-3.492 11.624-9.123 3.21-3.564 5.848-7.057 5.848-7.769 0-.784.999.142 2.496 2.423 2.282 3.35 2.496 4.134 2.568 8.91 0 4.49.427 6.272 3.423 13.685 3.138 7.697 3.352 8.695 2.781 11.689-.856 4.633-.428 5.346 2.995 4.918 1.569-.214 2.996-.143 3.21.214.57.855-.928 4.348-2.283 5.346-1.069.784-.998 1.069.357 3.278 1.355 2.281 1.426 2.638.499 4.491-1.783 3.35-1.355 4.419 1.64 4.918 4.065.713 6.419.57 7.988-.428 1.212-.713 1.783-.499 4.207 1.925 3.352 3.207 4.422 3.064 6.49-.998.785-1.568 1.997-2.851 2.639-2.851 2.852 0 10.198 1.71 10.198 2.423 0 .428-.499 2.281-1.212 4.134l-1.213 3.35 3.994 5.916c6.062 9.195 5.919 8.624 3.352 11.547-1.213 1.425-2.568 2.566-2.996 2.494-.499 0-2.709-1.14-4.992-2.637z" fill="#26323C"/><path d="M250.038 561.246c-2.354-1.925-2.924-2.139-4.493-1.426-1.854.855-6.846 1.141-7.56.428-.214-.214-.071-1.497.357-2.851.499-1.568.499-2.923.071-3.992-.499-1.14-.356-2.637.571-5.417 1.854-5.702 1.854-5.844-2.211-5.844h-3.494l.356-3.778c.357-3.35 0-4.633-2.924-11.476-2.638-6.272-3.28-8.481-3.28-11.903 0-3.849.285-4.704 3.352-9.266 2.353-3.563 3.494-6.058 3.779-8.339l.357-3.35 5.348-1.639c6.419-1.996 6.989-2.424 5.777-4.705-1.426-2.565-.784-3.278 3.994-5.131l4.421-1.64 1.783 2.352c1.426 1.925 2.425 2.424 5.349 2.851 3.78.499 5.349 1.925 7.916 7.057.57 1.14 1.854 2.352 2.853 2.708.998.428 2.424 1.283 3.209 1.996 2.71 2.423 11.054 6.629 12.48 6.272 1.783-.499 1.783.642.071 5.56l-1.283 3.564-4.065.214c-4.279.213-7.203-.998-10.056-4.135-.713-.784-1.711-1.425-2.282-1.425-1.783 0-8.772 5.132-8.772 6.415 0 2.209 3.709 9.907 4.921 10.264 4.849 1.425 11.696 2.566 14.477 2.423 1.854-.071 3.637.071 3.851.285.285.285-.357 1.925-1.426 3.707-1.783 3.064-1.926 3.136-3.994 2.423-1.212-.428-2.853-.57-3.78-.356-1.854.498-9.057 7.127-9.057 8.339 0 .499-1.426 4.348-3.28 8.553-2.568 6.13-3.566 7.769-4.778 7.983-.928.071-2.14 1.212-2.996 2.851-.784 1.497-1.711 2.709-2.139 2.637-.357 0-1.926-.998-3.423-2.209zm-101.625-23.165c-.356-.713-.927-2.423-1.212-3.778-.285-1.425-1.64-5.488-3.067-9.123-2.211-5.773-2.781-6.7-4.493-7.056-1.212-.214-2.424-1.283-3.423-3.136-1.141-2.067-2.139-2.852-3.851-3.208l-2.353-.428.071-6.201c0-3.991-.285-6.7-.856-7.341-.499-.57-3.352-1.639-6.347-2.423-4.921-1.212-5.562-1.569-6.561-3.636-.856-1.853-.927-2.708-.285-3.991.428-.855.927-2.851.998-4.419.214-2.78.357-2.922 5.563-5.56 2.924-1.425 5.705-2.637 6.133-2.637.357 0 1.997 1.283 3.566 2.922 1.497 1.568 4.992 4.847 7.631 7.199 4.421 3.92 5.42 4.491 11.125 5.988 4.849 1.282 6.917 2.28 9.057 4.134 1.498 1.425 4.136 3.064 5.919 3.635 1.854.641 3.709 1.425 4.279 1.639 2.781 1.426 13.907 25.802 12.195 26.871-.927.57-15.404 2.994-21.537 3.635-5.278.499-6.775 1.568-8.059 5.489-.856 2.637-3.423 3.421-4.493 1.425zm34.873-16.75c-1.426-4.633-6.846-15.752-8.843-18.247-.57-.713-.285-1.069.927-1.354 1.498-.428 1.569-.641 1.07-5.417-.57-6.059-.428-6.201 6.49-6.201 4.778 0 5.206.142 8.843 2.851 2.139 1.568 3.994 2.851 4.136 2.851.143 0 1.926-1.425 3.994-3.207l3.78-3.208 1.569 2.138c1.783 2.495 2.924 2.638 4.706.713 1.641-1.853 2.639-1.853 4.779.214 1.141 1.069 2.068 3.065 2.71 5.987l.927 4.419-5.278 5.916c-6.275 6.985-5.562 6.415-11.339 8.91-2.852 1.212-5.776 3.136-7.559 4.989-1.854 1.853-3.637 3.065-4.636 3.065-.927 0-2.353.143-3.138.356-1.283.357-1.711-.213-3.138-4.775z" fill="#26323C"/><path d="M223.865 502.87c-1.64-2.352-3.209-4.063-3.566-3.849-.57.357-2.139-3.849-2.139-5.844 0-.927-4.493-4.491-5.705-4.491-.5 0-1.712.642-2.71 1.426l-1.926 1.497-1.569-1.996c-.927-1.141-1.64-2.352-1.64-2.78 0-.428-.785-1.497-1.64-2.352-.928-.855-2.069-2.851-2.568-4.419-.713-2.495-1.07-2.78-3.138-2.78-2.638-.071-3.352-.428-4.992-2.994-.998-1.639-1.783-1.995-4.921-2.138-2.638-.142-3.851-.57-3.993-1.283-.143-.784.428-1.14 1.783-1.14 1.141 0 3.565-.072 5.42-.143l3.494-.142-.285-2.994-.214-2.994 3.922-1.283c2.14-.712 6.847-2.209 10.484-3.35l6.489-2.067 2.568 1.711c1.711 1.212 3.066 1.568 4.279 1.283 1.854-.428 1.996-.143 3.708 9.266.571 3.136 2.853 8.696 3.78 9.266.356.214 3.423-.57 6.846-1.711 3.423-1.211 6.561-1.924 6.846-1.782 1.284.784.571 3.208-1.497 5.56-2.639 2.994-2.639 3.778-.357 4.348 2.282.57 4.136 3.991 2.496 4.561-.57.214-2.995 1.07-5.348 1.854l-4.279 1.496-.357 3.279c-.285 2.138-1.284 4.704-3.067 7.342-1.426 2.138-2.781 3.991-2.995 3.991-.142 0-1.64-1.924-3.209-4.348z" fill="#26323C"/><path d="M169.451 498.309c-1.925-.571-4.778-1.853-6.347-2.923l-2.924-1.853 4.136-3.706 4.208-3.707-.927-4.276c-.499-2.352-.784-5.488-.642-7.057l.214-2.851 3.851-.213c3.495-.214 3.851-.428 4.564-2.353.428-1.14 1.141-2.067 1.569-2.067 1.641 0 3.851 2.21 4.065 4.063.143 1.069.713 1.996 1.284 2.067 7.916 1.069 7.845 1.069 8.914 3.136.928 1.711 1.569 2.139 3.638 2.139 2.21 0 2.638.285 3.637 2.637.57 1.497 1.783 3.421 2.567 4.348l1.569 1.639-3.352 3.208-3.423 3.207-3.78-2.922c-3.566-2.638-4.136-2.851-8.415-2.851-2.496 0-5.777.356-7.346.784l-2.71.712.428 4.918c.571 5.56.785 5.417-4.778 3.921zm103.265-4.491c-.428-.285-1.854-2.28-3.138-4.419-1.283-2.209-2.424-3.991-2.496-4.134-.142-.071-1.925-.499-4.065-.855-2.995-.57-4.279-1.283-5.848-3.065-1.782-2.067-4.35-6.914-3.922-7.341a127.96 127.96 0 012.924-1.283c1.426-.571 2.639-1.497 2.639-2.067 0-.499 1.283-3.635 2.852-6.843 1.783-3.706 2.853-6.914 2.853-8.624 0-4.277.784-6.985 2.496-8.767.856-.856 2.068-2.566 2.639-3.707.998-1.853.998-2.423.071-4.989-.927-2.78-.927-2.922.642-4.205 2.71-2.139 7.488-6.7 8.058-7.556.214-.427-1.355-2.637-3.565-4.918-3.923-4.205-3.994-4.276-3.78-8.054.214-3.635.357-3.778 2.282-4.063 1.141-.071 3.138 0 4.493.214 1.997.428 2.71 1.069 3.994 3.849 1.569 3.208 1.711 3.35 7.488 5.061l5.848 1.71 7.131-1.283c7.916-1.496 8.915-1.354 18.756 2.21 2.995 1.069 5.491 2.423 5.491 2.922 0 .499-.641 2.139-1.426 3.564-.784 1.497-1.426 3.493-1.426 4.562 0 3.278-10.341 14.897-14.62 16.322l-2.639.855.357 3.35c.214 1.854.927 4.491 1.64 5.916 1.141 2.424 1.141 2.709.072 4.419-.642.998-1.213 2.709-1.213 3.921 0 1.924-.356 2.209-4.065 3.563-4.564 1.711-5.919 2.994-5.919 5.631 0 1.711-.071 1.711-4.279 1.283l-4.207-.499-1.783 3.564-1.855 3.564-4.065.214-4.136.214-1.07 4.918c-1.069 4.846-1.783 5.916-3.209 4.846z" fill="#26323C"/><path d="M151.979 489.542c-6.49-1.853-6.918-2.139-13.336-7.983-3.637-3.35-6.846-6.558-7.06-7.057-.285-.57.071-1.354.642-1.781.927-.713 1.069-2.281.927-9.338l-.214-8.482 1.925-.712c2.782-.998 10.626 4.205 13.836 9.266 2.924 4.49 3.28 4.775 4.992 3.492 1.141-.784 1.854-.713 5.277.784 5.919 2.637 6.204 3.136 6.632 11.191l.286 6.913-3.281 2.851c-1.783 1.568-3.423 2.78-3.637 2.78-.214 0-3.352-.926-6.989-1.924zm90.999-8.197c1.212-1.283 1.569-2.566 1.569-5.346 0-4.49-.072-4.49-8.416-1.782-5.848 1.925-5.99 1.925-6.989.57-1.355-1.853-1.283-3.207.5-7.84.998-2.78 1.854-3.92 2.781-3.92 1.783 0 2.639-1.283 3.209-4.989.713-4.348.999-4.633 4.208-4.633 2.71 0 2.924-.214 6.133-5.346 3.922-6.13 3.566-6.059 11.41-2.281l5.349 2.637-.214 4.99c-.142 3.136-.642 5.773-1.426 7.127-.713 1.141-1.997 3.849-2.853 6.059-1.355 3.278-2.068 4.062-4.493 5.132-2.567 1.069-2.852 1.425-2.424 2.851 1.355 4.205.998 4.989-3.566 6.7-5.563 2.209-6.775 2.209-4.778.071z" fill="#26323C"/><path d="M160.537 466.377c-4.422-2.138-6.134-2.637-6.704-2.067-1.355 1.283-1.712 1.069-3.78-2.424-1.283-2.209-3.423-4.276-6.775-6.486l-4.992-3.278 2.71-2.923c1.498-1.639 3.78-4.205 5.135-5.702 3.637-3.991 4.493-4.276 8.629-2.922l3.495 1.14v4.99c0 4.205.356 5.488 2.21 8.838 1.213 2.138 2.425 4.063 2.782 4.205.285.214 2.852-.784 5.634-2.138 2.852-1.354 5.277-2.424 5.42-2.424.142 0 .927 1.283 1.711 2.852l1.498 2.851-2.14 4.276-2.139 4.277-3.423-.072c-2.425-.071-4.992-.855-9.271-2.993zm19.754.214c-2.068-1.711-2.21-2.067-1.569-4.063.5-1.283.5-2.566.143-3.136-1.07-1.711-.713-2.424 1.712-3.493 2.068-.998 2.282-1.425 2.496-4.775.214-3.635.285-3.778 2.71-4.206 1.355-.285 4.207 0 6.489.571l4.137.998 1.283 3.848c.642 2.139 1.427 4.42 1.641 5.132.285.927-.571 1.711-3.78 3.208-3.922 1.853-4.136 2.138-3.922 4.276.213 2.638-.072 2.78-5.349 3.208-3.209.285-3.994.071-5.991-1.568zm46.141-.143c-.214-.499-1.212-5.916-2.282-11.903-1.141-6.058-2.425-11.404-2.853-11.832-.927-.926-12.123-3.635-13.763-3.279-.571.072-1.926.856-2.996 1.64-1.141.855-2.139 1.354-2.282 1.212-.142-.143-.499-1.782-.713-3.564-.356-2.923-.214-3.422 2.14-5.845 1.497-1.639 2.923-2.566 3.708-2.352.642.142 1.925.499 2.781.784 1.213.356 2.496-.071 4.493-1.497 1.498-1.069 2.781-2.209 2.781-2.495 0-.356-1.711-1.995-3.851-3.635-2.139-1.71-3.922-3.421-3.922-3.92-.071-.427 1.498-1.782 3.352-2.993 3.066-1.996 4.065-2.21 8.558-2.21h5.134v-4.562c0-3.849.286-4.704 1.783-6.129.999-.927 1.783-2.139 1.783-2.638 0-.57.713-2.352 1.498-3.991 1.212-2.281 1.355-3.208.713-4.205-.713-1.141-.214-1.569 4.208-3.778 2.71-1.354 5.277-2.495 5.634-2.495.356 0 1.212.856 1.854 1.925 1.212 1.782 1.212 2.138.071 6.557-.927 3.421-1.925 5.417-3.851 7.342l-2.567 2.708.784 3.706c1.427 6.914 3.138 11.975 4.065 11.975.499 0 2.568-1.497 4.636-3.208 2.068-1.781 3.779-3.207 3.851-3.207.071 0 2.567.641 5.491 1.426 2.924.784 6.989 1.425 8.915 1.425 3.423.071 3.708.214 7.131 4.063l3.566 3.991-4.992 4.562-4.921 4.562 1.141 3.136c1.141 3.065 1.141 3.065-.998 5.987-1.141 1.568-2.282 2.922-2.425 2.922-.214 0-1.854-.784-3.78-1.782-6.204-3.136-10.911-4.704-11.91-3.848-.499.356-2.21 2.922-3.779 5.63-2.924 4.847-2.996 4.918-6.276 5.132l-3.423.214-.927 4.419c-.785 3.493-1.284 4.491-2.282 4.491-1.569 0-2.568 1.14-3.21 3.706-.57 2.281-1.64 3.207-2.068 1.853z" fill="#26323C"/><path d="M201.543 458.251c-.142-.356-1.069-3.065-1.925-6.129-.999-3.422-2.068-5.631-2.781-5.774-.642-.214-2.996-.713-5.278-1.14l-4.136-.856.214-3.991.214-3.92 3.209-.927c2.71-.855 3.423-.784 4.778.071.856.571 2.068 1.07 2.567 1.07.714 0 1.213 1.283 1.498 4.276.571 4.99 1.212 5.203 5.42 2.21l2.853-2.067 5.848 1.354c3.209.784 5.99 1.497 6.061 1.639.143.072.714 2.851 1.284 6.13.927 5.275.927 6.13 0 7.056-.927.927-1.284.856-3.066-.498-1.142-.784-2.497-1.569-3.067-1.711-.856-.143-8.701 1.996-12.338 3.421-.499.214-1.141.071-1.355-.214z" fill="#26323C"/><path d="M161.821 453.904c-1.141-2.281-1.854-5.061-2.14-8.696l-.356-5.275-4.351-1.283c-4.35-1.283-7.274-3.848-6.489-5.844.214-.428 4.92-2.851 10.483-5.417 7.916-3.635 10.341-5.061 11.125-6.629 1.213-2.21 1.07-2.209 4.636-1.14 2.496.712 2.853.641 4.778-.927 1.783-1.497 3.138-1.853 8.13-2.21 3.352-.213 6.704-.784 7.559-1.354 1.427-.855 1.926-.713 4.85.856 1.783.997 5.776 3.848 8.914 6.343 5.563 4.348 5.634 4.562 4.422 5.916-1.212 1.283-3.708 1.354-6.918.143-.57-.214-2.496 1.211-4.35 3.207l-3.352 3.564-1.925-1.426c-1.783-1.354-1.997-1.354-6.49-.142l-4.636 1.283-.213 4.847c-.214 4.633-.286 4.846-2.283 5.559-1.996.713-2.139.998-2.139 4.491 0 3.278-.214 3.848-1.854 4.704-1.641.926-1.926.855-2.782-.214-1.141-1.639-1.64-1.568-6.917.927-2.425 1.14-4.85 2.138-5.206 2.138-.428 0-1.569-1.568-2.496-3.421z" fill="#26323C"/><circle opacity=".2" cx="432" cy="421" r="58" fill="#fff"/><circle cx="432" cy="421" r="25" fill="#fff"/><circle cx="432" cy="420" r="4" fill="#EF7F1A"/><circle opacity=".08" cx="480" cy="565" r="25" fill="#fff"/><circle cx="480" cy="565" r="2.857" fill="#EF7F1A"/><circle opacity=".08" cx="664" cy="565" r="25" fill="#fff"/><circle cx="664" cy="565" r="2.857" fill="#EF7F1A"/><circle opacity=".08" cx="782" cy="283" r="25" fill="#fff"/><circle cx="782" cy="283" r="2.857" fill="#EF7F1A"/><circle opacity=".08" cx="852" cy="431" r="25" fill="#fff"/><circle cx="852" cy="431" r="2.857" fill="#EF7F1A"/><circle opacity=".08" cx="682" cy="377" r="25" fill="#fff"/><circle cx="682" cy="377" r="2.857" fill="#EF7F1A"/><circle opacity=".08" cx="604" cy="473" r="25" fill="#fff"/><circle cx="604" cy="473" r="2.857" fill="#EF7F1A"/><circle opacity=".08" cx="610" cy="279" r="25" fill="#fff"/><circle cx="610" cy="279" r="2.857" fill="#EF7F1A"/><circle cx="145" cy="453" r="35" fill="#EF7F1A"/><circle cx="145" cy="453" r="4" fill="#fff"/><circle cx="53" cy="547" r="35" fill="#EF7F1A"/><circle cx="53" cy="547" r="4" fill="#fff"/><circle cx="147" cy="331" r="35" fill="#EF7F1A"/><circle cx="147" cy="331" r="4" fill="#fff"/><circle opacity=".08" cx="247" cy="423" r="25" fill="#fff"/><circle cx="247" cy="423" r="2.857" fill="#EF7F1A"/><circle opacity=".08" cx="229" cy="541" r="25" fill="#fff"/><circle cx="229" cy="541" r="2.857" fill="#EF7F1A"/></svg>