<svg width="458" height="417" fill="none" xmlns="http://www.w3.org/2000/svg"><path d="M228.735 693.171L34.991 352.117C2.803 295.457-6.923 239.672 5.74 184.643c12.732-54.91 46.279-101.512 100.713-139.685C160.024 7.388 211.721-6.47 261.435 3.457c49.644 9.805 90.693 42.607 123.112 98.087l195.95 344.936-94.555 66.312-194.02-341.54c-19.298-33.972-40.496-53.547-63.735-58.966-23.238-5.421-47.55.77-72.936 18.574-53.141 37.268-62.221 87.749-27.309 151.321l195.675 344.451-94.88 66.537-.002.002z" fill="#EF7F1A"/></svg>